<svg xmlns="http://www.w3.org/2000/svg" xmlns:xlink="http://www.w3.org/1999/xlink" width="734" height="196.088"><style><![CDATA[.B{stroke-width:.384}.C{fill:#f27f77}.D{stroke-miterlimit:10}.E{fill:#ffd38e}]]></style><defs><clipPath id="A"><rect width="729" height="192" rx="5" fill="#fff" x="676" y="5768"/></clipPath><linearGradient id="B" y1=".5" x2="1" y2=".5"><stop offset="0" stop-color="#f9811e"/><stop offset="1" stop-color="#ff4e17"/></linearGradient><clipPath id="C"><path fill="none" d="M0 0h734.57v489.714H0z"/></clipPath><linearGradient id="D" x1=".892" y1=".148" x2=".164" y2=".777"><stop offset="0" stop-color="#9ecedb"/><stop offset="1" stop-color="#93b3e6"/></linearGradient><linearGradient id="E" y1=".5" x2="1" y2=".5"><stop offset="0" stop-color="#fc5c24"/><stop offset="1" stop-color="#ff8500"/></linearGradient><linearGradient id="F" x1="-.207" y1=".5" x2="1.206" y2=".5" xlink:href="#D"/><linearGradient id="G" x1="-.207" y1=".5" x2="1.207" y2=".5"><stop offset="0" stop-color="#ff7639"/><stop offset="1" stop-color="#ea9626"/></linearGradient><linearGradient id="H" x1="0" y1=".5" x2="1" y2=".5" xlink:href="#D"/></defs><g clip-path="url(#A)" transform="translate(-671 -5764)"><path fill="url(#B)" d="M670.93 5478h734.57v489.714H670.93z"/><g transform="translate(670.93 5478)" clip-path="url(#C)"><path d="M0 489.714l221.154-305.778L734.57 0 597.058 244.857z" opacity=".33" fill="url(#D)"/><circle cx="203.721" cy="142.408" r="172.281" fill="url(#E)"/><circle cx="59.647" cy="59.647" r="59.647" transform="matrix(.242 -.97 .97 .242 287.913 265.624)" fill="none" stroke="#fcfcfc" stroke-width="1.152"/><g fill="#f4641c"><circle cx="85.994" cy="85.994" r="85.994" transform="matrix(.707107 -.707107 .707107 .707107 546.975 319.337)"/><circle cx="61.606" cy="61.606" r="61.606" transform="matrix(.23005 -.973179 .973179 .23005 -66.723 249.939)"/></g><circle cx="22.429" cy="22.429" r="22.429" transform="matrix(.23005 -.973179 .973179 .23005 53.147 126.203)" fill="none" stroke="#707070" stroke-width=".768"/><path d="M546.716 237.12l-97.355-97.355L546.716 42.3l97.355 97.453z" fill="#ff7b40"/><path opacity=".33" fill="url(#F)" d="M229.745 364.907l52.08 52.08-52.046 52.046-52.08-52.08z"/><path fill="url(#G)" d="M425.925 292.995L549.2 416.27 425.94 539.533 302.663 416.257z"/><g fill="#ff7b40"><circle cx="534.767" cy="489.714" r="61.606"/><path d="M85.602 427.618l-54.162-54.06 54.162-54.162 54.065 54.162z"/></g><path d="M0 0l216.06 106.856L462.485 0z" opacity=".24" fill="url(#H)"/><g fill="none" stroke="#fff" class="B"><g class="D"><path d="M279.04 128.207l157.884-65.72M57.6 298.53l62.88-26.15m557 192.456l62.88-26.15M471.8 367.873l34.77-14.398M76.297 489.714l34.77-14.496M517.333 319.4l49.363-20.568"/></g><circle cx="9.403" cy="9.403" r="9.403" transform="matrix(.16 -.987 .987 .16 610.815 46.086)"/><g class="D"><path d="M264.152 249.95a5.1 5.1 0 0 1-1.457 3.665 5.09 5.09 0 0 1-3.636 1.526 5.19 5.19 0 0 1-5.191-5.191c0-2.84 2.302-5.142 5.142-5.142s5.142 2.302 5.142 5.142zm106.855 160.724a5.29 5.29 0 0 1-5.289 5.289 5.29 5.29 0 1 1 3.74-9.029 5.29 5.29 0 0 1 1.549 3.74z"/></g><circle cx="32.027" cy="43.584" r="9.794"/><g class="D"><path d="M655.922 432.8a4.7 4.7 0 0 1-4.7 4.7 4.8 4.8 0 0 1-4.7-4.7 4.7 4.7 0 0 1 4.7-4.7 4.6 4.6 0 0 1 4.7 4.7zm-633.69-23.312c.001 2.272-1.84 4.114-4.112 4.115s-4.114-1.84-4.116-4.1 1.838-4.115 4.1-4.117c1.1 0 2.138.433 2.9 1.205s1.205 1.818 1.205 2.9z"/></g></g></g></g><g class="E"><path d="M138.11 164.252c14.613 1.284 30.957-2.25 36.82-17.444a26.91 26.91 0 0 0-3.556-25.405c5.08-21.94 5.376-48.516-16.585-61.466-4.74-2.794-10.2-4.68-13.87-8.782-4.016-4.493-5.13-10.8-6.08-16.75-1.692-10.6-3.617-19.97-12.7-26.786C114.94 2.23 105.693-.006 96.818 0c-7.35.005-19-.142-24.406 5.546a5.84 5.84 0 0 1-1.522 1.323 5.71 5.71 0 0 1-1.5.4c-5.105 1.1-9.46 4.39-11.892 9-2.67 4.948-1.57 9.622-1.76 14.938-.167 4.68-.63 9.534-3.006 13.57-2.58 4.384-7.122 7.268-11.81 9.246S31.26 57.244 26.6 59.284C16.634 63.678 8.603 71.54 4 81.41a44.13 44.13 0 0 0-1.965 31.542c1.87 5.85 4.555 11.43 10.463 14.08-.618 3.94-1.235 7.962-.576 11.9.974 5.805 6.7 11.728 11.207 15.3 6.572 5.2 15.1 7.425 23.472 7.77"/><path d="M64.654 33.466c2.34 8.1-2.917 16.608-9.528 21.843s-14.65 8.444-21.232 13.715c-9.376 7.507-16.55 20.862-15.658 33.108.494 6.76 3.88 13.46 9.764 17.032-.827-.5-1.777 11.6-1.615 12.7a23.05 23.05 0 0 0 5.635 12.121c5.025 5.53 13.984 9.018 21.035 11.342 8.672 2.858 18.75 2.4 27.763 2.61q17.248.4 34.485-.8 4.476-.313 8.942-.732c7.112-.67 14.324-1.573 20.878-4.416 3.525-1.53 6.913-3.7 9-6.924 3.6-5.547 2.617-12.867.62-19.17 8.216-2.835 13.165-12.026 12.72-20.706s-5.438-16.636-11.92-22.426c-3.6-3.217-7.683-5.89-11.1-9.313a35.14 35.14 0 0 1-10.06-26.09" opacity=".34" style="mix-blend-mode:multiply"/></g><path d="M131.415 111.644c-1.094-4.847-5.2-8.57-9.775-10.508-4.658-1.975-9.383-2.235-14.34-2.38q-.007-8.37-.015-16.74c-2.596-.698-5.235-1.222-7.9-1.568l.005-.2c-.39.014-.778.045-1.167.065-.387-.043-.774-.1-1.162-.132l-.005.2a60.39 60.39 0 0 0-7.98 1.107q-.492 8.355-.986 16.7c-4.956-.142-9.688-.156-14.452 1.546-4.68 1.672-9 5.148-10.367 9.924a3.68 3.68 0 0 0-.081 2.282c.25.557.627 1.048 1.1 1.434 4.22 3.926 9.84 5.97 15.417 7.418 5.272 1.375 10.663 2.248 16.1 2.607v.05c.388.01.776.006 1.165.01l1.165.06v-.05c5.45-.044 10.884-.602 16.23-1.67 5.652-1.124 11.382-2.838 15.82-6.513.493-.36.896-.828 1.177-1.37.258-.736.275-1.535.05-2.282z" class="C"/><path d="M82.274 121.424a23.04 23.04 0 0 0-.382-5.754q-1.27-8.617-1.675-17.33a27.99 27.99 0 0 0-5.327 1.01q-.624 9.4-1.25 18.8c-.02.25-.024.5-.01.75a58.6 58.6 0 0 0 6.069 1.9l2.573.624zm30.618-22.364q-2.553 11.833-4.715 23.745 3.118-.392 6.187-1l.555-.118a173.56 173.56 0 0 1 1.557-12.11l1.708-9.6a33.76 33.76 0 0 0-5.292-.905z" fill="#d371ab"/><g fill="#fff"><path d="M94.077 118.903c.2-5.312 2.086-10.875 6.355-14.044 2.3-1.55 4.873-2.648 7.582-3.238 6.3-1.667 12.792-2.51 19.143-3.975s12.682-3.625 17.864-7.58l7.663 9.61"/><path d="M94.077 118.903c.112-5.314-1.452-10.978-5.53-14.388a21.9 21.9 0 0 0-7.382-3.672c-6.194-2.03-12.625-3.246-18.88-5.078s-12.452-4.353-17.4-8.6l-8.207 9.148"/></g><path d="M152.693 92.755l-.035.016c-7.242 3.362-14.783 6.055-22.266 8.82-3.87 1.43-7.795 2.786-11.6 4.387-3.294 1.386-7.192 1.608-10.262 3.584-1.242.8-2.307 1.852-3.544 2.66-2.2 1.437-6.264 1.786-9.12 1.776-2.85-.156-6.888-.74-9-2.3-1.187-.878-2.19-1.99-3.383-2.86-2.95-2.15-6.83-2.6-10.037-4.173-3.707-1.82-7.545-3.4-11.327-5.05-7.314-3.195-14.69-6.32-21.72-10.095l-.034-.018c-.623-.323-1.368-.303-1.972.054s-.982 1-1 1.7l-2.2 75.883a2.04 2.04 0 0 0 1.046 1.84c10.816 6.076 21 13.246 32.372 17.95 3.64 1.506 7.02 4.182 11.15 2.32 2.345 3.93 6.873 6.212 11.424 6.688.767.08 1.535.11 2.3.114.765.04 1.533.056 2.3.02 4.57-.212 9.223-2.23 11.792-6.017 4.016 2.1 7.545-.376 11.266-1.668 11.628-4.038 22.207-10.606 33.357-16.045a2.04 2.04 0 0 0 1.15-1.777l2.2-75.883c.023-.7-.316-1.362-.897-1.754s-1.322-.456-1.962-.17z" fill="#4e5f97"/><path d="M109.71 108.9a11.41 11.41 0 0 0-1.18.66c-1.242.8-2.307 1.852-3.544 2.66-2.2 1.437-6.264 1.786-9.12 1.776-2.85-.156-6.888-.74-9-2.3-1.187-.878-2.19-1.99-3.383-2.86-.485-.345-.995-.653-1.526-.92l-2.36 81.4.166-.064c2.345 3.93 6.873 6.212 11.424 6.688.767.08 1.535.11 2.3.114.765.04 1.533.056 2.3.02 4.437-.206 8.945-2.118 11.555-5.693z" fill="#465684"/><path d="M113.028 185.356l1.745-72.907 36.218-13.2-.008.37-1.58 68.9-.142.066zm2.243-72.55l-1.72 71.75 35.355-16.35 1.563-68.22zm-40.956 71.416l-.347-.178-33.9-17.34.005-.16 1.975-70.03 36.06 13.782.02.147c.062.4-3.146 61.206-3.8 73.4zM40.578 166.4l33.272 17.016 3.77-72.764-35.1-13.4z" fill="#5e77bc"/><g class="E"><rect width="18.467" height="5.463" rx="2.297" transform="matrix(.99958 .028968 -.028968 .99958 85.496 160.386)"/><path d="M100.332 179.444c-.074 2.57-1.69 4.84-4.09 5.755s-5.12.292-6.883-1.577-2.228-4.618-1.176-6.963 3.413-3.826 5.983-3.75c1.685.05 3.28.765 4.438 2s1.78 2.86 1.73 4.546z"/></g><path d="M120.247 169.037l24.507-10.072-.156 5.387-24.522 10.592zm26.126-57.65l-27.83 9.93-.3 10.037 27.83-9.868z" fill="#465684"/><path d="M107.286 82.016a60.43 60.43 0 0 0-7.9-1.568l.005-.2-1.167.065-1.162-.132-.005.2a60.39 60.39 0 0 0-7.98 1.107q-.346 5.877-.693 11.753a64.79 64.79 0 0 0 18.915-.053q-.008-5.586-.013-11.172z" opacity=".22" style="mix-blend-mode:multiply" class="C"/><path d="M126.127 47.787a8.63 8.63 0 0 1 5.719-6.336 6.97 6.97 0 0 1 7.795 2.877 8.3 8.3 0 0 1 1.008 3.192c.417 4.34-1.1 8.643-4.17 11.75-2.355 2.465-5.8 4.253-9.13 3.5m-58.19-7.995c-.995-2.877-3.432-5.017-6.413-5.633a6.97 6.97 0 0 0-7.41 3.759 8.28 8.28 0 0 0-.632 3.287c.088 4.36 2.102 8.456 5.5 11.188 2.625 2.176 6.255 3.554 9.472 2.425" fill="#e57370"/><g fill="#cc6260"><path d="M129.012 60.916c0-5.817 2.278-11.86 8.1-14.054.5-.188.307-1.005-.2-.815-6.187 2.33-8.742 8.6-8.744 14.844a.42.42 0 0 0 .839.024z"/><path d="M132.523 49.534c1.783 2.656 1.547 6.182-.575 8.576-.356.4.216 1.015.575.6a7.87 7.87 0 0 0 .736-9.587c-.294-.45-1.033-.052-.736.4zm-63.9 18.453c-.707-6.127-3.967-12.1-10.322-13.68-.523-.13-.77.67-.246.8 6.1 1.52 9.078 7.233 9.753 13.077.062.536.877.332.815-.2z"/><path d="M62.263 56.87c-1.635 3.183-.915 7.068 1.752 9.454.4.358 1.014-.215.6-.575-2.407-2.108-3.086-5.576-1.65-8.435.242-.48-.47-.927-.712-.444z"/></g><path d="M115.59 11.748c-5-3.612-12.145-4.04-18.134-3.948-6.98.106-15.26.855-21.684 3.725-3.72 1.662-6.858 5.6-9.083 8.964-5.166 7.8-3.907 17.73-1.9 26.435.415 1.495.704 3.023.865 4.566.378 6.33-.346 12.385 1.887 18.532 1.88 5.173 5.976 10.6 10.918 13.058 6.68 3.178 14.12 4.398 21.465 3.518 5.012-.414 9.962-1.393 14.755-2.916a24.1 24.1 0 0 0 13.909-12.636c1.882-4.45 1.853-8.24 1.126-12.98-.56-3.648-.767-7.254-2.627-10.545-.19-.284-.32-.605-.38-.942a2.3 2.3 0 0 1 .05-.609c2.05-11.845-.923-26.816-11.168-34.222z" class="C"/><path d="M80.226 38.203c-2.794-1.54-11.592 2.9-9.978 6.572a2.38 2.38 0 0 0 1.672 1.182c1.472.33 3.013.144 4.365-.526a11.21 11.21 0 0 0 3.508-2.743 5 5 0 0 0 1.3-2.217 2.1 2.1 0 0 0-.867-2.268zm24.847-3.096c2.234-2.278 11.936-.557 11.448 3.422a2.38 2.38 0 0 1-1.262 1.613 6.58 6.58 0 0 1-4.331.752 11.23 11.23 0 0 1-4.15-1.618c-.77-.4-1.42-1-1.886-1.748a2.1 2.1 0 0 1 .181-2.421zm-10.735 27.3a5.58 5.58 0 0 0 9.485-3.793.421.421 0 1 0-.842-.024 4.73 4.73 0 0 1-8.031 3.239c-.4-.37-1 .208-.613.578zm-9.342-8.702c.2 2.294-.6 4.23-1.735 4.325s-2.23-1.7-2.418-3.984.6-4.23 1.736-4.326 2.23 1.7 2.417 3.985zm26.348-3c.188 2.294-.6 4.23-1.736 4.325s-2.23-1.7-2.417-3.984.6-4.232 1.735-4.326 2.23 1.7 2.418 3.985z" fill="#af4f4f"/><path d="M71.91 42.028a65.14 65.14 0 0 0 1.288-8.391c1.175 2.137 2.037 4.43 2.56 6.813a7.04 7.04 0 0 0 .442 1.463c7.43-.305 14.857-1.07 22.252-1.79l.95-.09q.12-4.037.24-8.076a57.93 57.93 0 0 1 2.528 7.812c5.945-.564 11.874-1.13 17.78-2.043q.115-3.966.232-7.932a80.28 80.28 0 0 1 1.706 7.619l.514-.083c2.243-.386 4.457-.792 6.585-1.37.286-2.748.3-6.9.286-7.508a20.72 20.72 0 0 0-2.305-9.7 20.95 20.95 0 0 0-3.551-4.523 39.3 39.3 0 0 0-23.6-10.808 53.92 53.92 0 0 0-25.871 4.09 29.4 29.4 0 0 0-9 5.326c-2.5 2.312-3.33 5.313-4.18 8.552a47.56 47.56 0 0 0-.652 20.269c3.93.33 7.863.43 11.797.37z" class="E"/><path d="M97.82 50.566c-2.9-.36-6.983 2.273-5.367 5.607.666 1.372 2.4 1.99 3.784 2.3 1.457.324 2.068.45 2.858-.75.558-1.052.81-2.238.732-3.426-.015-1.565-.855-3.006-2.21-3.8" opacity=".22" style="mix-blend-mode:multiply" class="C"/><path d="M97.198 50.393a4.9 4.9 0 0 0-5.574 4.484c-.126 2.9 3.522 4.327 5.856 4.04.538-.066.333-.884-.2-.818-2.285.28-5.253-1.3-4.724-3.985.405-2.055 2.735-3.1 4.617-2.88.54.063.56-.78.025-.843z" fill="#af4f4f"/><path d="M151.83 146.694c-18.178-5.108-37.49-1.63-56.367-1.223-5.27.115-10.613-.023-15.693-1.43-14.29-3.95-24.29-17.5-28.2-31.8a81.25 81.25 0 0 1-2.627-18.477c-2.884-1.343-5.74-2.742-8.544-4.246l-.034-.018c-.623-.323-1.368-.303-1.972.054s-.982 1-1 1.7l-2.2 75.883a2.04 2.04 0 0 0 1.046 1.84c10.816 6.076 21 13.246 32.372 17.95 3.64 1.506 7.02 4.182 11.15 2.32 2.345 3.93 6.873 6.212 11.424 6.688.767.08 1.535.11 2.3.114.765.04 1.533.056 2.3.02 4.57-.212 9.223-2.23 11.792-6.017 4.016 2.1 7.545-.376 11.266-1.668 11.628-4.038 22.207-10.606 33.357-16.045a2.04 2.04 0 0 0 1.15-1.777l.673-23.2a54.01 54.01 0 0 0-2.194-.671z" fill="#4e5f97" opacity=".13" style="mix-blend-mode:multiply"/><path d="M42.192 134.88c-3.286.826-6.473 3.968-8.858-.008-4.686-7.8 2.327-18.33 7.806-23.523 1.047-1 4.1-4.446 5.82-3.448 1.935 1.115-3.27 8.467-4.218 9.922 2.62-2.68 5.764-5.567 9.5-5.27.775.06 1.714.48 1.685 1.257a1.76 1.76 0 0 1-.686 1.11l-7.207 6.853c2.404-1.1 4.97-1.798 7.6-2.072.663-.116 1.344-.06 1.98.163a1.5 1.5 0 0 1 .949 1.589 2.24 2.24 0 0 1-1.084 1.206l-9.358 6.245a23.67 23.67 0 0 1 9.03 3.156c.557.335 1.18.877 1.007 1.5a1.4 1.4 0 0 1-.717.758c-3.794 2.2-8.293 0-12.343.4a6.32 6.32 0 0 0-.906.162zm104.208.083c3.252.948 6.32 4.206 8.852.323 4.974-7.63-1.64-18.4-6.924-23.8-1.008-1.03-3.922-4.6-5.688-3.663-1.975 1.042 2.95 8.583 3.845 10.073-2.52-2.776-5.552-5.78-9.3-5.622-.776.033-1.73.417-1.73 1.193a1.76 1.76 0 0 0 .644 1.135l6.947 7.117c-2.36-1.187-4.9-1.982-7.516-2.353a3.91 3.91 0 0 0-1.983.089 1.5 1.5 0 0 0-1.009 1.551 2.24 2.24 0 0 0 1.039 1.245q4.56 3.3 9.12 6.6a23.69 23.69 0 0 0-9.142 2.817c-.57.313-1.2.832-1.063 1.465a1.4 1.4 0 0 0 .689.784c3.7 2.342 8.287.313 12.32.86.305.043.606.1.9.196z" class="C"/></svg>