<svg xmlns="http://www.w3.org/2000/svg" xmlns:xlink="http://www.w3.org/1999/xlink" width="805" height="92"><defs><clipPath id="A"><path d="M5 0h795a5 5 0 0 1 5 5v87H0V5a5 5 0 0 1 5-5z" transform="translate(2041 8034)" fill="#fff"/></clipPath><clipPath id="B"><path transform="translate(27.821 14.554)" fill="none" d="M0 0h1014.436v676.29H0z"/></clipPath><linearGradient id="C" y1=".5" x2="1" y2=".5"><stop offset="0" stop-color="#3b8909"/><stop offset="1" stop-color="#78ff69"/></linearGradient><linearGradient id="D" y1=".5" x2="1" y2=".5"><stop offset="0" stop-color="#25541b"/><stop offset="1" stop-color="#31ff44"/></linearGradient><linearGradient id="E" y1=".5" x2="1" y2=".5"><stop offset="0" stop-color="#0dd354"/><stop offset="1" stop-color="#1fff39" stop-opacity="0"/></linearGradient><linearGradient id="F" y1=".5" x2="1" y2=".5"><stop offset="0" stop-color="#0b632f"/><stop offset="1" stop-color="#63e50e"/></linearGradient><linearGradient id="G" x1="0" xlink:href="#E"/></defs><g transform="translate(-2041 -8034)" clip-path="url(#A)"><g transform="translate(1822.243 7886.446)" clip-path="url(#B)"><path fill="url(#C)" d="M27.82 14.554h1014.436v676.29H27.82z"/><path d="M545.048 14.554l-235.62 676.29H27.82l259.56-676.29z" fill="url(#D)"/><g opacity=".9"><path d="M410.33 128.307L125.747-39.822l-287.83 162.448-3.246 330.436 284.583 168.126 287.83-162.445zm-70.6 39.9l-2.435 249.28-217.23 122.545-214.8-126.737 2.434-249.418L124.936 41.336z" fill="url(#E)"/></g><path d="M965.16 14.554l-235.48 676.29h-281.6l259.425-676.29z" fill="url(#F)"/><g fill="none" stroke="#707070" stroke-width=".184"><circle cx="184.585" cy="512.169" r="98.738"/><circle cx="184.585" cy="512.169" r="60.19"/><circle cx="528.546" cy="127.224" r="98.738"/><circle cx="528.547" cy="127.225" r="60.19"/></g><g fill="#fff"><circle cx="339.05" cy="248.28" r="2.705"/><circle cx="347.706" cy="253.014" r="2.705"/><circle cx="356.363" cy="257.613" r="2.705"/><circle cx="365.019" cy="262.347" r="2.705"/><circle cx="373.676" cy="267.081" r="2.705"/><circle cx="382.197" cy="271.68" r="2.705"/><circle cx="390.854" cy="276.414" r="2.705"/><circle cx="399.51" cy="281.148" r="2.705"/><circle cx="408.167" cy="285.747" r="2.705"/><circle cx="416.823" cy="290.481" r="2.705"/><circle cx="425.48" cy="295.215" r="2.705"/><circle cx="434.136" cy="299.814" r="2.705"/><circle cx="335.262" cy="255.178" r="2.705"/><circle cx="343.919" cy="259.913" r="2.705"/><circle cx="352.575" cy="264.647" r="2.705"/><circle cx="361.232" cy="269.245" r="2.705"/><circle cx="369.889" cy="273.979" r="2.705"/><circle cx="378.545" cy="278.713" r="2.705"/><circle cx="387.202" cy="283.312" r="2.705"/><circle cx="395.723" cy="288.046" r="2.705"/><circle cx="404.379" cy="292.645" r="2.705"/><circle cx="413.036" cy="297.379" r="2.705"/><circle cx="421.692" cy="302.113" r="2.705"/><circle cx="430.349" cy="306.712" r="2.705"/><circle cx="331.61" cy="262.212" r="2.705"/><circle cx="340.132" cy="266.811" r="2.705"/><circle cx="348.788" cy="271.545" r="2.705"/><circle cx="357.445" cy="276.144" r="2.705"/><circle cx="366.101" cy="280.878" r="2.705"/><circle cx="374.758" cy="285.612" r="2.705"/><circle cx="383.414" cy="290.21" r="2.705"/><circle cx="392.071" cy="294.944" r="2.705"/><circle cx="400.592" cy="299.678" r="2.705"/><circle cx="409.249" cy="304.277" r="2.705"/><circle cx="417.905" cy="309.011" r="2.705"/><circle cx="426.562" cy="313.745" r="2.705"/><circle cx="327.823" cy="269.11" r="2.705"/><circle cx="336.48" cy="273.709" r="2.705"/><circle cx="345.001" cy="278.443" r="2.705"/><circle cx="353.658" cy="283.177" r="2.705"/><circle cx="362.314" cy="287.776" r="2.705"/><circle cx="370.971" cy="292.51" r="2.705"/><circle cx="379.627" cy="297.244" r="2.705"/><circle cx="388.284" cy="301.843" r="2.705"/><circle cx="396.94" cy="306.577" r="2.705"/><circle cx="405.461" cy="311.311" r="2.705"/><circle cx="414.118" cy="315.909" r="2.705"/><circle cx="422.774" cy="320.643" r="2.705"/><circle cx="324.036" cy="276.008" r="2.705"/><circle cx="332.693" cy="280.742" r="2.705"/><circle cx="341.349" cy="285.341" r="2.705"/><circle cx="350.006" cy="290.075" r="2.705"/><circle cx="358.527" cy="294.809" r="2.705"/><circle cx="367.183" cy="299.408" r="2.705"/><circle cx="375.84" cy="304.142" r="2.705"/><circle cx="384.496" cy="308.876" r="2.705"/><circle cx="393.153" cy="313.475" r="2.705"/><circle cx="401.809" cy="318.209" r="2.705"/><circle cx="410.331" cy="322.943" r="2.705"/><circle cx="418.987" cy="327.542" r="2.705"/><circle cx="320.249" cy="282.906" r="2.705"/><circle cx="328.905" cy="287.64" r="2.705"/><circle cx="337.562" cy="292.374" r="2.705"/><circle cx="346.218" cy="296.973" r="2.705"/><circle cx="354.875" cy="301.707" r="2.705"/><circle cx="363.396" cy="306.441" r="2.705"/><circle cx="372.053" cy="311.04" r="2.705"/><circle cx="380.709" cy="315.774" r="2.705"/><circle cx="389.366" cy="320.508" r="2.705"/><circle cx="398.022" cy="325.107" r="2.705"/><circle cx="406.679" cy="329.841" r="2.705"/><circle cx="415.2" cy="334.44" r="2.705"/><circle cx="316.462" cy="289.94" r="2.705"/><circle cx="325.118" cy="294.539" r="2.705"/><circle cx="333.775" cy="299.273" r="2.705"/><circle cx="342.431" cy="304.007" r="2.705"/><circle cx="351.088" cy="308.605" r="2.705"/><circle cx="359.744" cy="313.34" r="2.705"/><circle cx="368.265" cy="317.938" r="2.705"/><circle cx="376.922" cy="322.672" r="2.705"/><circle cx="385.578" cy="327.406" r="2.705"/><circle cx="394.235" cy="332.005" r="2.705"/><circle cx="402.892" cy="336.739" r="2.705"/><circle cx="411.548" cy="341.473" r="2.705"/><circle cx="312.81" cy="296.838" r="2.705"/><circle cx="321.331" cy="301.437" r="2.705"/><circle cx="329.987" cy="306.171" r="2.705"/><circle cx="338.644" cy="310.905" r="2.705"/><circle cx="347.3" cy="315.504" r="2.705"/><circle cx="355.957" cy="320.238" r="2.705"/><circle cx="364.613" cy="324.972" r="2.705"/><circle cx="373.135" cy="329.571" r="2.705"/><circle cx="381.791" cy="334.305" r="2.705"/><circle cx="390.448" cy="339.039" r="2.705"/><circle cx="399.104" cy="343.637" r="2.705"/><circle cx="407.761" cy="348.371" r="2.705"/><circle cx="309.022" cy="303.736" r="2.705"/><circle cx="317.679" cy="308.47" r="2.705"/><circle cx="326.2" cy="313.069" r="2.705"/><circle cx="334.857" cy="317.803" r="2.705"/><circle cx="343.513" cy="322.537" r="2.705"/><circle cx="352.17" cy="327.136" r="2.705"/><circle cx="360.826" cy="331.87" r="2.705"/><circle cx="369.483" cy="336.604" r="2.705"/><circle cx="378.004" cy="341.203" r="2.705"/><circle cx="386.661" cy="345.937" r="2.705"/><circle cx="395.317" cy="350.671" r="2.705"/><circle cx="403.974" cy="355.27" r="2.705"/><circle cx="305.235" cy="310.634" r="2.705"/><circle cx="313.892" cy="315.368" r="2.705"/><circle cx="322.548" cy="320.102" r="2.705"/><circle cx="331.069" cy="324.701" r="2.705"/><circle cx="339.726" cy="329.435" r="2.705"/><circle cx="348.382" cy="334.169" r="2.705"/><circle cx="357.039" cy="338.768" r="2.705"/><circle cx="365.696" cy="343.502" r="2.705"/><circle cx="374.352" cy="348.236" r="2.705"/><circle cx="383.009" cy="352.835" r="2.705"/><circle cx="391.53" cy="357.569" r="2.705"/><circle cx="400.186" cy="362.168" r="2.705"/><circle cx="301.448" cy="317.668" r="2.705"/><circle cx="310.104" cy="322.267" r="2.705"/><circle cx="318.761" cy="327.001" r="2.705"/><circle cx="327.417" cy="331.735" r="2.705"/><circle cx="335.939" cy="336.333" r="2.705"/><circle cx="344.595" cy="341.067" r="2.705"/><circle cx="353.252" cy="345.801" r="2.705"/><circle cx="361.908" cy="350.4" r="2.705"/><circle cx="370.565" cy="355.134" r="2.705"/><circle cx="379.221" cy="359.733" r="2.705"/><circle cx="387.878" cy="364.467" r="2.705"/><circle cx="396.399" cy="369.201" r="2.705"/><circle cx="297.661" cy="324.566" r="2.705"/><circle cx="306.317" cy="329.3" r="2.705"/><circle cx="314.974" cy="333.899" r="2.705"/><circle cx="323.63" cy="338.633" r="2.705"/><circle cx="332.287" cy="343.232" r="2.705"/><circle cx="340.808" cy="347.966" r="2.705"/><circle cx="349.465" cy="352.7" r="2.705"/><circle cx="358.121" cy="357.298" r="2.705"/><circle cx="366.778" cy="362.032" r="2.705"/><circle cx="375.434" cy="366.766" r="2.705"/><circle cx="384.091" cy="371.365" r="2.705"/><circle cx="392.747" cy="376.099" r="2.705"/><circle cx="293.873" cy="331.464" r="2.705"/><circle cx="302.53" cy="336.198" r="2.705"/><circle cx="311.187" cy="340.797" r="2.705"/><circle cx="319.843" cy="345.531" r="2.705"/><circle cx="328.5" cy="350.265" r="2.705"/><circle cx="337.156" cy="354.864" r="2.705"/><circle cx="345.813" cy="359.598" r="2.705"/><circle cx="354.334" cy="364.332" r="2.705"/><circle cx="362.99" cy="368.931" r="2.705"/><circle cx="371.647" cy="373.665" r="2.705"/><circle cx="380.303" cy="378.399" r="2.705"/><circle cx="388.96" cy="382.997" r="2.705"/><circle cx="290.222" cy="338.362" r="2.705"/><circle cx="298.743" cy="343.096" r="2.705"/><circle cx="307.399" cy="347.83" r="2.705"/><circle cx="316.056" cy="352.429" r="2.705"/><circle cx="324.712" cy="357.163" r="2.705"/><circle cx="333.369" cy="361.897" r="2.705"/><circle cx="342.025" cy="366.496" r="2.705"/><circle cx="350.682" cy="371.23" r="2.705"/><circle cx="359.203" cy="375.964" r="2.705"/><circle cx="367.86" cy="380.563" r="2.705"/><circle cx="376.516" cy="385.297" r="2.705"/><circle cx="385.173" cy="390.031" r="2.705"/><circle cx="848.432" cy="236.783" r="2.705"/><circle cx="857.765" cy="233.537" r="2.705"/><circle cx="867.098" cy="230.291" r="2.705"/><circle cx="876.295" cy="227.045" r="2.705"/><circle cx="885.628" cy="223.799" r="2.705"/><circle cx="894.825" cy="220.552" r="2.705"/><circle cx="904.158" cy="217.306" r="2.705"/><circle cx="913.356" cy="214.06" r="2.705"/><circle cx="922.689" cy="210.814" r="2.705"/><circle cx="932.022" cy="207.568" r="2.705"/><circle cx="941.219" cy="204.321" r="2.705"/><circle cx="950.552" cy="201.075" r="2.705"/><circle cx="851.137" cy="244.223" r="2.705"/><circle cx="860.335" cy="240.976" r="2.705"/><circle cx="869.667" cy="237.73" r="2.705"/><circle cx="878.865" cy="234.484" r="2.705"/><circle cx="888.198" cy="231.238" r="2.705"/><circle cx="897.531" cy="227.992" r="2.705"/><circle cx="906.728" cy="224.745" r="2.705"/><circle cx="916.061" cy="221.499" r="2.705"/><circle cx="925.259" cy="218.253" r="2.705"/><circle cx="934.591" cy="215.007" r="2.705"/><circle cx="943.789" cy="211.761" r="2.705"/><circle cx="953.122" cy="208.514" r="2.705"/><circle cx="853.707" cy="251.662" r="2.705"/><circle cx="862.904" cy="248.416" r="2.705"/><circle cx="872.237" cy="245.169" r="2.705"/><circle cx="881.57" cy="241.923" r="2.705"/><circle cx="890.768" cy="238.677" r="2.705"/><circle cx="900.101" cy="235.431" r="2.705"/><circle cx="909.298" cy="232.185" r="2.705"/><circle cx="918.631" cy="228.938" r="2.705"/><circle cx="927.828" cy="225.692" r="2.705"/><circle cx="937.161" cy="222.446" r="2.705"/><circle cx="946.494" cy="219.2" r="2.705"/><circle cx="955.692" cy="215.954" r="2.705"/><circle cx="856.277" cy="259.101" r="2.705"/><circle cx="865.61" cy="255.855" r="2.705"/><circle cx="874.807" cy="252.609" r="2.705"/><circle cx="884.14" cy="249.362" r="2.705"/><circle cx="893.338" cy="246.116" r="2.705"/><circle cx="902.67" cy="242.87" r="2.705"/><circle cx="912.003" cy="239.624" r="2.705"/><circle cx="921.201" cy="236.378" r="2.705"/><circle cx="930.534" cy="233.131" r="2.705"/><circle cx="939.731" cy="229.885" r="2.705"/><circle cx="949.064" cy="226.639" r="2.705"/><circle cx="958.261" cy="223.393" r="2.705"/><circle cx="858.847" cy="266.54" r="2.705"/><circle cx="868.18" cy="263.294" r="2.705"/><circle cx="877.512" cy="260.048" r="2.705"/><circle cx="886.71" cy="256.802" r="2.705"/><circle cx="896.043" cy="253.555" r="2.705"/><circle cx="905.24" cy="250.309" r="2.705"/><circle cx="914.573" cy="247.063" r="2.705"/><circle cx="923.771" cy="243.817" r="2.705"/><circle cx="933.103" cy="240.571" r="2.705"/><circle cx="942.436" cy="237.324" r="2.705"/><circle cx="951.634" cy="234.078" r="2.705"/><circle cx="960.967" cy="230.832" r="2.705"/><circle cx="861.552" cy="273.979" r="2.705"/><circle cx="870.75" cy="270.733" r="2.705"/><circle cx="880.082" cy="267.487" r="2.705"/><circle cx="889.28" cy="264.241" r="2.705"/><circle cx="898.613" cy="260.995" r="2.705"/><circle cx="907.945" cy="257.748" r="2.705"/><circle cx="917.143" cy="254.502" r="2.705"/><circle cx="926.476" cy="251.256" r="2.705"/><circle cx="935.673" cy="248.01" r="2.705"/><circle cx="945.006" cy="244.764" r="2.705"/><circle cx="954.204" cy="241.517" r="2.705"/><circle cx="963.537" cy="238.271" r="2.705"/><circle cx="864.122" cy="281.419" r="2.705"/><circle cx="873.455" cy="278.172" r="2.705"/><circle cx="882.652" cy="274.926" r="2.705"/><circle cx="891.985" cy="271.68" r="2.705"/><circle cx="901.183" cy="268.434" r="2.705"/><circle cx="910.515" cy="265.188" r="2.705"/><circle cx="919.713" cy="261.941" r="2.705"/><circle cx="929.046" cy="258.695" r="2.705"/><circle cx="938.379" cy="255.449" r="2.705"/><circle cx="947.576" cy="252.203" r="2.705"/><circle cx="956.909" cy="248.957" r="2.705"/><circle cx="966.107" cy="245.71" r="2.705"/><circle cx="866.692" cy="288.858" r="2.705"/><circle cx="876.025" cy="285.612" r="2.705"/><circle cx="885.222" cy="282.365" r="2.705"/><circle cx="894.555" cy="279.119" r="2.705"/><circle cx="903.888" cy="275.873" r="2.705"/><circle cx="913.085" cy="272.627" r="2.705"/><circle cx="922.418" cy="269.381" r="2.705"/><circle cx="931.616" cy="266.134" r="2.705"/><circle cx="940.948" cy="262.888" r="2.705"/><circle cx="950.146" cy="259.642" r="2.705"/><circle cx="959.479" cy="256.396" r="2.705"/><circle cx="968.812" cy="253.15" r="2.705"/><circle cx="869.397" cy="296.297" r="2.705"/><circle cx="878.595" cy="293.051" r="2.705"/><circle cx="887.927" cy="289.805" r="2.705"/><circle cx="897.125" cy="286.558" r="2.705"/><circle cx="906.458" cy="283.312" r="2.705"/><circle cx="915.655" cy="280.066" r="2.705"/><circle cx="924.988" cy="276.82" r="2.705"/><circle cx="934.186" cy="273.574" r="2.705"/><circle cx="943.518" cy="270.327" r="2.705"/><circle cx="952.851" cy="267.081" r="2.705"/><circle cx="962.049" cy="263.835" r="2.705"/><circle cx="971.382" cy="260.589" r="2.705"/><circle cx="871.967" cy="303.736" r="2.705"/><circle cx="881.164" cy="300.49" r="2.705"/><circle cx="890.497" cy="297.244" r="2.705"/><circle cx="899.695" cy="293.998" r="2.705"/><circle cx="909.028" cy="290.751" r="2.705"/><circle cx="918.36" cy="287.505" r="2.705"/><circle cx="927.558" cy="284.259" r="2.705"/><circle cx="936.891" cy="281.013" r="2.705"/><circle cx="946.088" cy="277.767" r="2.705"/><circle cx="955.421" cy="274.52" r="2.705"/><circle cx="964.619" cy="271.274" r="2.705"/><circle cx="973.952" cy="268.028" r="2.705"/><circle cx="874.537" cy="311.311" r="2.705"/><circle cx="883.869" cy="308.064" r="2.705"/><circle cx="893.067" cy="304.818" r="2.705"/><circle cx="902.4" cy="301.572" r="2.705"/><circle cx="911.597" cy="298.326" r="2.705"/><circle cx="920.93" cy="295.08" r="2.705"/><circle cx="930.128" cy="291.833" r="2.705"/><circle cx="939.461" cy="288.587" r="2.705"/><circle cx="948.793" cy="285.341" r="2.705"/><circle cx="957.991" cy="282.095" r="2.705"/><circle cx="967.324" cy="278.849" r="2.705"/><circle cx="976.521" cy="275.602" r="2.705"/><circle cx="877.107" cy="318.75" r="2.705"/><circle cx="886.439" cy="315.504" r="2.705"/><circle cx="895.637" cy="312.257" r="2.705"/><circle cx="904.97" cy="309.011" r="2.705"/><circle cx="914.303" cy="305.765" r="2.705"/><circle cx="923.5" cy="302.519" r="2.705"/><circle cx="932.833" cy="299.273" r="2.705"/><circle cx="942.031" cy="296.027" r="2.705"/><circle cx="951.363" cy="292.78" r="2.705"/><circle cx="960.561" cy="289.534" r="2.705"/><circle cx="969.894" cy="286.288" r="2.705"/><circle cx="979.226" cy="283.042" r="2.705"/><circle cx="879.812" cy="326.189" r="2.705"/><circle cx="889.009" cy="322.943" r="2.705"/><circle cx="898.342" cy="319.697" r="2.705"/><circle cx="907.54" cy="316.45" r="2.705"/><circle cx="916.873" cy="313.204" r="2.705"/><circle cx="926.07" cy="309.958" r="2.705"/><circle cx="935.403" cy="306.712" r="2.705"/><circle cx="944.736" cy="303.466" r="2.705"/><circle cx="953.933" cy="300.219" r="2.705"/><circle cx="963.266" cy="296.973" r="2.705"/><circle cx="972.464" cy="293.727" r="2.705"/><circle cx="981.796" cy="290.481" r="2.705"/><circle cx="882.382" cy="333.628" r="2.705"/><circle cx="891.579" cy="330.382" r="2.705"/><circle cx="900.912" cy="327.136" r="2.705"/><circle cx="910.245" cy="323.89" r="2.705"/><circle cx="919.443" cy="320.643" r="2.705"/><circle cx="928.775" cy="317.397" r="2.705"/><circle cx="937.973" cy="314.151" r="2.705"/><circle cx="947.306" cy="310.905" r="2.705"/><circle cx="956.503" cy="307.659" r="2.705"/><circle cx="965.836" cy="304.412" r="2.705"/><circle cx="975.169" cy="301.166" r="2.705"/><circle cx="984.366" cy="297.92" r="2.705"/></g><g fill="none" stroke-width=".184" stroke="#fff" stroke-miterlimit="10"><path d="M570.07 324.7L886.305 12.255M746.583 220.552l316.234-312.446m-992.66 961.55L386.4 557.2M246.67 765.507L562.903 453.06m-739.05.002L140.086 140.48"/></g><g opacity=".9"><path d="M606.862 621.052l287.83 162.445L1179.14 615.37l-3.246-330.436L888.064 122.5 603.48 290.616zm282.013-417.407L1106.1 326.19l2.434 249.418L893.88 702.342 676.655 579.798l-2.57-249.28z" fill="url(#G)"/></g><g fill="none" stroke-width=".184"><g stroke="#fff" stroke-miterlimit="10"><path d="M.363 348.912L316.597 36.466M734.4 668.392l316.234-312.446M911.057 564.243l316.234-312.446"/></g><g stroke="#707070"><circle cx="746.582" cy="442.917" r="98.738"/><circle cx="746.583" cy="442.917" r="60.19"/></g></g></g></g></svg>