<svg xmlns="http://www.w3.org/2000/svg" xmlns:xlink="http://www.w3.org/1999/xlink" width="729" height="192"><style><![CDATA[.B{fill:#ee7668}.C{stroke:#fff}.D{stroke-width:.384}.E{fill:#d371ab}.F{opacity:.16}.G{stroke-miterlimit:10}.H{fill:#ffd38e}.I{stroke-width:.768}]]></style><defs><clipPath id="A"><rect width="729" height="192" rx="5" fill="#fff" x="1608" y="5805"/></clipPath><linearGradient id="B" y1=".5" x2="1" y2=".5"><stop offset="0" stop-color="#ff4343"/><stop offset="1" stop-color="#f28686"/></linearGradient><clipPath id="C"><path fill="none" d="M0 0h729.5v486.333H0z"/></clipPath><linearGradient id="D" x1=".892" y1=".148" x2=".164" y2=".777"><stop offset="0" stop-color="#9ecedb"/><stop offset="1" stop-color="#93b3e6"/></linearGradient><linearGradient id="E" y1=".5" x2="1" y2=".5"><stop offset="0" stop-color="#ff1a56"/><stop offset="1" stop-color="#ff5299"/></linearGradient><linearGradient id="F" x1="-.207" y1=".5" x2="1.206" y2=".5" xlink:href="#D"/><linearGradient id="G" x1="-.207" y1=".5" x2="1.207" y2=".5"><stop offset="0" stop-color="#ff337d"/><stop offset="1" stop-color="#ff6161"/></linearGradient><linearGradient id="H" x1="0" y1=".5" x2="1" y2=".5" xlink:href="#D"/></defs><g transform="translate(-1608 -5805)" clip-path="url(#A)"><path fill="url(#B)" d="M1608 5763h729.5v486.333H1608z"/><g transform="translate(1608 5763)" clip-path="url(#C)"><path d="M0 486.333l219.626-303.666L729.5 0 592.937 243.167z" opacity=".33" fill="url(#D)"/><circle cx="202.315" cy="141.426" r="171.092" fill="url(#E)"/><g fill="#f71949"><circle cx="85.401" cy="85.401" r="85.401" transform="matrix(.707107 -.707107 .707107 .707107 543.199 317.133)"/><circle cx="61.181" cy="61.181" r="61.181" transform="matrix(.23005 -.973179 .973179 .23005 -66.262 248.214)"/></g><circle cx="22.274" cy="22.274" r="22.274" transform="matrix(.23005 -.973179 .973179 .23005 52.78 125.332)" fill="none" stroke="#707070" class="I"/><path d="M542.943 235.482L446.26 138.8l96.683-96.78 96.683 96.78z" fill="#ec8484" class="F"/><path fill="none" stroke="#707070" d="M312.565 328.624l85.49 85.49-85.457 85.457-85.49-85.49z" class="G I"/><path opacity=".33" fill="url(#F)" d="M228.16 362.388l51.72 51.72-51.687 51.687-51.72-51.72z"/><path fill="url(#G)" d="M422.985 290.972L545.4 413.397l-122.41 122.41-122.425-122.425z"/><g fill="#ec8484"><circle cx="531.076" cy="486.334" r="61.181" class="F"/><path d="M85.01 424.666l-53.788-53.69 53.788-53.788 53.69 53.788z" class="F"/></g><path d="M0 0l214.57 106.118L459.293 0z" opacity=".24" fill="url(#H)"/><g fill="none" class="C D"><g class="G"><path d="M277.113 127.322l156.794-65.266M57.193 296.47l62.445-25.97m553.156 191.127l62.445-25.97m-266.705-70.324l34.53-14.298M75.77 486.333l34.53-14.395m403.463-154.75l49.022-20.426"/></g><circle cx="9.338" cy="9.338" r="9.338" transform="matrix(.16 -.987 .987 .16 606.599 45.768)"/><g class="G"><path d="M262.328 248.224a5.06 5.06 0 0 1-5.058 5.155c-2.847 0-5.155-2.308-5.155-5.155a5.11 5.11 0 0 1 5.106-5.036 5.11 5.11 0 0 1 5.106 5.036zM368.446 407.84c0 2.9-2.35 5.252-5.252 5.252a5.25 5.25 0 1 1 0-10.504 5.25 5.25 0 0 1 5.252 5.252z"/></g><circle cx="31.807" cy="43.284" r="9.727"/><g class="G"><path d="M651.395 429.822a4.67 4.67 0 0 1-4.669 4.669 4.77 4.77 0 0 1-4.67-4.67 4.67 4.67 0 0 1 4.669-4.669 4.57 4.57 0 0 1 4.669 4.669zM22.08 406.672c0 2.256-1.83 4.085-4.085 4.085a4.09 4.09 0 0 1-4.085-4.085 4.09 4.09 0 0 1 6.975-2.889c.768.766 1.196 1.805 1.196 2.9z"/></g></g></g></g><path d="M.828 98.864a4.89 4.89 0 0 1 2.432-.733c-.588 2.568.3 5.23 1.32 7.658s2.2 4.892 2.226 7.526c-.008 3.135-1.642 6.042-4.317 7.677" fill="#f3debf"/><path d="M1 119.14L0 97.56h1.8l.88 23.1z" class="E"/><path d="M85.003 71.854c2.63-5.994 3.675-12.563 3.033-19.077-.285-2.9-.626-5.66-2.5-7.954-1.923-2.192-4.545-3.653-7.42-4.135a6.07 6.07 0 0 1-2.958-1.064c-.523-.53-.9-1.176-1.13-1.887-.718-1.91-.7-3.94-1.293-5.827-.53-1.3-1.274-2.5-2.2-3.556-1.866-2.548-4.57-4.356-7.64-5.106a16.5 16.5 0 0 0-5.756.01c-3.48.514-5.545 2.1-8.434 3.844-3.136 1.9-7.08 1.48-10.736 1.22a40.6 40.6 0 0 0-11.09.449c-3.676.667-7.08 2.392-9.8 4.963a22.17 22.17 0 0 0-3.534 4.886c-1.367 2.443-3.257 5.578-3.152 8.444.098 2.818 1.23 5.5 3.182 7.537 1.656 1.788 3.64 3.248 5.307 5.025a1.54 1.54 0 0 1 .451.719c.15.766-.756 1.254-1.455 1.6-5.718 2.85-3.97 9.493-.65 13.366 2.335 2.675 5.792 4.097 9.333 3.838" class="H"/><path d="M51.684 92.446c.5.4 4.39 16.03 4.39 16.03s-17.937-6.158-22.047 6-1.1 36.872-1.1 36.872l-5.464 30.366s16.585 13.22 50.977 5.56c0 0 23.734-59.38 14.616-69.6-5.232-6.013-12.713-9.6-20.677-9.915l-7-19.4z" class="B"/><path d="M93.055 117.668a29.23 29.23 0 0 0-20.13-9.907c-2.65 2.825-6.364 4.4-10.237 4.372s-7.554-1.696-10.15-4.572c-5.443-1.1-15.555-1.83-18.51 6.916-4.11 12.16-1.1 36.872-1.1 36.872l-5.464 30.366s16.585 13.22 50.977 5.56c-.002-.003 23.732-59.383 14.615-69.606z" fill="#5e8685"/><path d="M55.35 107.4c-10.558 4.01-22.07 4.778-33.37 5.262-5.283.226-10.758.45-15.48 2.83-2.277 1.148-4.5 3.146-4.5 5.7l53.065-6.894a26.08 26.08 0 0 0 1.766-.159 171.91 171.91 0 0 1-1.48-6.739z" fill="#f3debf"/><g class="E"><path d="M61.058 110.62l-47.793 7.7s-7.523 3.73-12.255.812l7.758 61.786s4.786 3 12.888-.9l45.858-6.63z"/><path d="M64.534 144.424c-2.356.057-4.715.252-7.045.53-6.94.833-14.183 2.355-20.76-.02a24.02 24.02 0 0 1-10.5-8.078 34.4 34.4 0 0 1-7.081-19.473l-5.887.95s-7.523 3.73-12.255.812l7.758 61.786s4.786 3 12.888-.9l45.858-6.63z" style="mix-blend-mode:multiply" class="F"/></g><path d="M13.873 118.232l-.608.1s-7.523 3.73-12.255.812l7.758 61.786s4.786 3 12.888-.9l.34-.05z" fill="#bf609d"/><path d="M24.753 176.28l-.03-.223-7.834-55.138 41.313-6.7.025.23 5.937 55.3zm-7.368-55l7.74 54.488 38.555-6.386-5.868-54.654z" fill="#933a73"/><g class="E"><path style="mix-blend-mode:overlay" d="M33.965 169.156l20.3-3.025.365 2.45-20.3 3.025z"/><path opacity=".5" style="mix-blend-mode:multiply" d="M3.402 125.093l9.83-.853.217 2.504-9.83.853z"/></g><path d="M4.8 149.4l12.438-5.525-.342-2.6-12.423 5.518zm1.183 9.3l12.5-5.548-.64-4.87L5.37 153.83z" class="H"/><path opacity=".5" style="mix-blend-mode:multiply" d="M22.555 124.657l32.352-4.82.97 6.52-32.352 4.82z" class="E"/><g class="B"><path d="M95.12 145.425l-21.34 1.448-1.975 15.277-31.738-10.94a62.4 62.4 0 0 0-6.246 12.036c13.773 11.61 30.34 19.418 48.06 22.654a5 5 0 0 0 5.664-3.4c2.535-8 7.767-25.932 7.575-37.075z"/><path d="M95.122 145.425l-21.34 1.448-1.4 10.84a43.18 43.18 0 0 0 7.348 3.3 35.77 35.77 0 0 0 13.134 1.886c1.35-6.187 2.344-12.506 2.26-17.475z" opacity=".22" style="mix-blend-mode:multiply"/></g><path d="M87.172 155a40.27 40.27 0 0 0 11.085-2.314c.348-9.327.57-35.905-7.93-39.928 0 0-12.512-7.976-16.163 4.854-2.857 10.037-2.876 27.436-2.748 34.536a32.19 32.19 0 0 0 15.756 2.852z" fill="#517775"/><path d="M98.363 148.808l.016-1.3c-5.11.806-10.283 1.163-15.456 1.066a83.25 83.25 0 0 1-11.542-.811v1.23a92.87 92.87 0 0 0 12.665.864c4.794.064 9.584-.287 14.317-1.05z" fill="#5e8685"/><g class="B"><path d="M65.38 88.355l-13.7 4.09c.364.285 2.53 8.677 3.678 13.2 5.14-.425 10.168-1.726 14.868-3.848z" opacity=".22" style="mix-blend-mode:multiply"/><path d="M76.68 83.766a46.58 46.58 0 0 0 .369-5.929 126.14 126.14 0 0 0-1.034-18.207c-.288-2.18-1.444-4.728-1.444-6.87-2.46-8.468-7.65-15.02-16.848-15.974-5.144-.534-10.722.587-15.743 1.464-4.753.83-9.6 3.984-13.09 7.184-5.742 5.266-5.578 9.654-5.434 16.988.146 7.456 2.1 14.715 4.6 21.7 2.5 7 6.454 14.734 14.43 16.248a37.76 37.76 0 0 0 25.313-4.486 23.5 23.5 0 0 0 5.617-4.239 14.41 14.41 0 0 0 3.264-7.88z"/><path d="M73.8 68.438c.846-5.334 6.665-6.707 10.494-3.3a9.8 9.8 0 0 1 2.936 5.4c.56 2.33.113 4.8-1.233 6.774-2.574 3.935-7.078 6.166-11.768 5.83"/></g><path d="M30.878 61.82c-1.255-1.322-3.913-.6-5.313.1-1.888.936-5.817 5.015-3.16 6.82 2.716 1.843 6.728-1.667 8.14-3.677.686-.974 1.154-2.374.333-3.242zm16.252-4.96c.343-1.8 2.973-2.613 4.526-2.785 2.094-.23 7.6 1.082 6.34 4.035-1.3 3.017-6.563 2.228-8.837 1.3-1.097-.45-2.253-1.38-2.03-2.55z" fill="#aa4a43"/><path d="M49.37 75.756l-7.555 3.9a8.25 8.25 0 0 0 2.954 3.37 5.26 5.26 0 0 0 4.946.395c1.634-.922 2.7-2.598 2.844-4.468.122-1.516-.06-3.04-.54-4.485l-2.65 1.288z" fill="#913831"/><path d="M52.547 79.02a8.19 8.19 0 0 0-3.749.333 9.11 9.11 0 0 0-4.381 3.441l.35.236a5.26 5.26 0 0 0 4.946.395c1.615-.9 2.676-2.558 2.834-4.405z" fill="#ea4e47"/><g fill="#aa4a43"><path d="M35.478 75.426c.62 1.874.464 3.61-.347 3.878s-1.97-1.034-2.59-2.907-.464-3.61.347-3.877 1.97 1.033 2.59 2.906z"/><ellipse cx="1.546" cy="3.573" rx="1.546" ry="3.573" transform="matrix(.949469 -.31386 .31386 .949469 51.637 66.257)"/></g><path d="M43.5 76.168c.476.012.95-.062 1.4-.216 1.347-.525 1.2-1.792 1.032-3.1a5.5 5.5 0 0 0-1.226-3.006 1.07 1.07 0 0 0-.375-.3c-.185-.06-.383-.07-.573-.03a4.87 4.87 0 0 0-3.351 1.91 3 3 0 0 0 .313 4.041 5.11 5.11 0 0 0 2.78.71zM77.005 80.6a17.26 17.26 0 0 1 .4-6.383 8.89 8.89 0 0 1 3.628-5.138c1.014-.636 2.415-.976 3.36-.24A3.1 3.1 0 0 1 85.371 71c.537 4.608-2.668 8.815-7.253 9.522a.89.89 0 0 1-.873-.2" opacity=".22" style="mix-blend-mode:multiply" class="B"/><g fill="#c6564e"><path d="M43.152 69.466c-1.978.156-4.236 2.176-3.668 4.35a2.94 2.94 0 0 0 2.082 2.054 5.08 5.08 0 0 0 3.947-.039.32.32 0 0 0 .099-.429.32.32 0 0 0-.423-.124c-1.54.908-4.866.1-5.118-1.866-.216-1.685 1.542-3.186 3.08-3.307.4-.033.412-.673 0-.64zm34.15 11.374c-.375-5 .862-11.22 6.522-12.573.4-.1.23-.714-.17-.618-5.933 1.417-7.4 7.9-6.993 13.2.03.4.672.412.64 0z"/><path d="M79.2 70.943a5.1 5.1 0 0 1-.373 7.517c-.3.275.145.727.453.454a5.75 5.75 0 0 0 .374-8.423c-.283-.3-.735.15-.454.453z"/></g><path d="M30.157 43.68A19.29 19.29 0 0 0 56.318 63.25a15.27 15.27 0 0 0 11.027 8.407c2.643.458 5.838-.077 7.13-2.428a7.7 7.7 0 0 0 .51-4.534 33.73 33.73 0 0 0-4.627-14.422c-2.655-4.408-6.83-7.694-11.74-9.237" opacity=".15" style="mix-blend-mode:multiply" class="B"/><path d="M29.4 36.257a22.21 22.21 0 0 0 9.741 18.266 24.34 24.34 0 0 0 19.466 2.908 1.25 1.25 0 0 1 .883-.011c.318.243.53.6.593.994 1.894 6.215 7.127 11.263 13.07 11.7a5.1 5.1 0 0 0 3.962-1.078c1.3-1.228 1.57-3.32 1.562-5.2-.14-4.527-.975-9.006-2.477-13.28-1.814-5.626-4.4-11.347-9.02-14.484-3.3-2.24-7.26-2.9-11.12-3.293q-4.094-.412-8.2-.484c-5.962-.1-12.473.58-16.8 5.095" class="H"/><path d="M17.49 173.053c.165 2.175-1.178 4.05-3 4.19s-3.433-1.512-3.6-3.687 1.178-4.05 3-4.19 3.438 1.512 3.6 3.687z" opacity=".5" style="mix-blend-mode:multiply" class="E"/><path d="M52.805 155.58c-3.504-.9-6.773-2.54-9.588-4.81-2.395-1.932-4.894-4.063-6.337-6.832-1.235-2.37-2.234-4.91-3.978-6.938-.194-.273-.473-.474-.793-.572a1.1 1.1 0 0 0-1.141.742 4.12 4.12 0 0 0 .415 3.072c.804 1.36 1.44 2.815 1.892 4.33a87.4 87.4 0 0 0-10.405-.987c-.74-.026-1.685.1-1.88.814-.24.887.925 1.442 1.828 1.613l8.625 1.633a12.48 12.48 0 0 0-2.539.094l-2.645.1c-1.615.06-3.266.06-4.865.276-.7.048-1.367.31-1.914.747-.076.06-.132.143-.163.235-.057.23.174.424.384.533 1.146.478 2.388.68 3.627.593 1.125.007 2.2 0 3.3.09 1.294.1 2.6.065 3.89.23-.592.05-1.175.178-1.733.38-.613.126-1.228.24-1.847.335a33.6 33.6 0 0 0-4.269.547c-.6.174-2.225.285-2.28 1.152-.024.38.527.516.825.617a8.39 8.39 0 0 0 2.513.311 57.39 57.39 0 0 0 6.683-.111c-.795.498-1.644.904-2.53 1.2-1.4.468-2.78.984-4.168 1.48-.7.247-1.518.695-1.45 1.424 2.016 1.183 4.54-.01 6.877-.055.39-.027.783.042 1.142.2.867.438 1.068 1.55 1.347 2.48.508 1.717 1.6 3.202 3.087 4.2a25.44 25.44 0 0 0 4.79 2.876" class="B"/></svg>