<svg xmlns="http://www.w3.org/2000/svg" xmlns:xlink="http://www.w3.org/1999/xlink" width="805" height="92"><defs><clipPath id="A"><path d="M5 0h795a5 5 0 0 1 5 5v87H0V5a5 5 0 0 1 5-5z" transform="translate(2041 8350)" fill="#fff" stroke="#707070" stroke-width="1"/></clipPath><clipPath id="B"><path transform="translate(27.821 14.554)" fill="none" d="M0 0h927.354v618.236H0z"/></clipPath><linearGradient id="C" y1=".5" x2="1" y2=".5"><stop offset="0" stop-color="#741dff"/><stop offset="1" stop-color="#600ce6"/></linearGradient><linearGradient id="D" x1="-.143" y1=".667" x2="1.147" y2=".343" xlink:href="#C"/><linearGradient id="E" x1="3.343" y1=".254" x2="4.492" y2=".254"><stop offset="0" stop-color="#b052ff"/><stop offset="1" stop-color="#01e4f2" stop-opacity="0"/></linearGradient><linearGradient id="F" x1="-.143" y1=".667" x2="1.147" y2=".343"><stop offset="0" stop-color="#600ce6"/><stop offset="1" stop-color="#741dff"/></linearGradient><linearGradient id="G" x1=".42" y1=".506" x2="1.568" y2=".506" xlink:href="#E"/><linearGradient id="H" x1=".289" y1=".792" x2="1.55" y2=".792"><stop offset="0" stop-color="#b052ff"/><stop offset="1" stop-color="#01e4f2"/></linearGradient><linearGradient id="I" x1=".318" y1="-9.086" x2="1.568" y2="-9.086" xlink:href="#H"/><linearGradient id="J" x1="1.203" y1="6.865" x2="2.465" y2="6.865" xlink:href="#H"/><linearGradient id="K" x1="-3.222" y1="5.295" x2="-1.983" y2="5.295" xlink:href="#H"/><linearGradient id="L" x1="-7.563" y1="-.208" x2="-6.303" y2="-.208" xlink:href="#H"/><linearGradient id="M" x1="7.393" y1="5.527" x2="8.652" y2="5.527" xlink:href="#H"/><linearGradient id="N" x1="-2.717" y1="10.359" x2="-1.48" y2="10.359" xlink:href="#H"/><linearGradient id="O" x1="-8.983" y1="-5.446" x2="-7.735" y2="-5.446" xlink:href="#H"/></defs><g transform="translate(-2041 -8350)" clip-path="url(#A)"><g transform="translate(1994.326 8191.445)" clip-path="url(#B)"><path fill="url(#C)" d="M27.82 14.554h927.354V632.8H27.82z"/><path d="M500.647 14.554L285.254 632.8H27.82L265.1 14.554z" fill="url(#D)"/><g opacity=".9"><path d="M377.495 118.545L117.34-35.155l-263.12 148.5-2.968 302.07 260.154 153.697 263.122-148.5zM312.95 155.02L310.728 382.9l-198.58 112.024-196.35-115.857 2.226-228.005L116.6 39.036z" fill="url(#E)"/></g><path d="M884.696 14.554L669.426 632.8H411.993L649.148 14.554z" fill="url(#F)"/><g fill="none" stroke="#707070" stroke-width=".184"><circle cx="171.127" cy="469.452" r="90.262"/><circle cx="171.128" cy="469.452" r="55.023"/><circle cx="485.562" cy="117.552" r="90.262"/><circle cx="485.562" cy="117.552" r="55.023"/></g><g fill="#fff"><circle cx="312.333" cy="228.217" r="2.473"/><circle cx="320.246" cy="232.544" r="2.473"/><circle cx="328.16" cy="236.748" r="2.473"/><circle cx="336.073" cy="241.076" r="2.473"/><circle cx="343.987" cy="245.404" r="2.473"/><circle cx="351.776" cy="249.608" r="2.473"/><circle cx="359.69" cy="253.935" r="2.473"/><circle cx="367.603" cy="258.263" r="2.473"/><circle cx="375.517" cy="262.467" r="2.473"/><circle cx="383.43" cy="266.795" r="2.473"/><circle cx="391.343" cy="271.122" r="2.473"/><circle cx="399.257" cy="275.326" r="2.473"/><circle cx="308.871" cy="234.523" r="2.473"/><circle cx="316.784" cy="238.85" r="2.473"/><circle cx="324.698" cy="243.178" r="2.473"/><circle cx="332.611" cy="247.382" r="2.473"/><circle cx="340.524" cy="251.71" r="2.473"/><circle cx="348.438" cy="256.037" r="2.473"/><circle cx="356.351" cy="260.241" r="2.473"/><circle cx="364.141" cy="264.569" r="2.473"/><circle cx="372.054" cy="268.773" r="2.473"/><circle cx="379.968" cy="273.101" r="2.473"/><circle cx="387.881" cy="277.428" r="2.473"/><circle cx="395.795" cy="281.632" r="2.473"/><circle cx="305.532" cy="240.952" r="2.473"/><circle cx="313.322" cy="245.156" r="2.473"/><circle cx="321.236" cy="249.484" r="2.473"/><circle cx="329.149" cy="253.688" r="2.473"/><circle cx="337.062" cy="258.016" r="2.473"/><circle cx="344.976" cy="262.343" r="2.473"/><circle cx="352.889" cy="266.547" r="2.473"/><circle cx="360.803" cy="270.875" r="2.473"/><circle cx="368.592" cy="275.203" r="2.473"/><circle cx="376.506" cy="279.407" r="2.473"/><circle cx="384.419" cy="283.734" r="2.473"/><circle cx="392.333" cy="288.062" r="2.473"/><circle cx="302.07" cy="247.258" r="2.473"/><circle cx="309.984" cy="251.462" r="2.473"/><circle cx="317.773" cy="255.79" r="2.473"/><circle cx="325.687" cy="260.118" r="2.473"/><circle cx="333.6" cy="264.322" r="2.473"/><circle cx="341.514" cy="268.649" r="2.473"/><circle cx="349.427" cy="272.977" r="2.473"/><circle cx="357.34" cy="277.181" r="2.473"/><circle cx="365.254" cy="281.509" r="2.473"/><circle cx="373.044" cy="285.836" r="2.473"/><circle cx="380.957" cy="290.04" r="2.473"/><circle cx="388.871" cy="294.368" r="2.473"/><circle cx="298.608" cy="253.564" r="2.473"/><circle cx="306.522" cy="257.892" r="2.473"/><circle cx="314.435" cy="262.096" r="2.473"/><circle cx="322.348" cy="266.424" r="2.473"/><circle cx="330.138" cy="270.751" r="2.473"/><circle cx="338.052" cy="274.955" r="2.473"/><circle cx="345.965" cy="279.283" r="2.473"/><circle cx="353.878" cy="283.611" r="2.473"/><circle cx="361.792" cy="287.815" r="2.473"/><circle cx="369.705" cy="292.142" r="2.473"/><circle cx="377.495" cy="296.47" r="2.473"/><circle cx="385.408" cy="300.674" r="2.473"/><circle cx="295.146" cy="259.87" r="2.473"/><circle cx="303.059" cy="264.198" r="2.473"/><circle cx="310.973" cy="268.526" r="2.473"/><circle cx="318.886" cy="272.73" r="2.473"/><circle cx="326.8" cy="277.057" r="2.473"/><circle cx="334.589" cy="281.385" r="2.473"/><circle cx="342.503" cy="285.589" r="2.473"/><circle cx="350.416" cy="289.917" r="2.473"/><circle cx="358.33" cy="294.244" r="2.473"/><circle cx="366.243" cy="298.448" r="2.473"/><circle cx="374.156" cy="302.776" r="2.473"/><circle cx="381.946" cy="306.98" r="2.473"/><circle cx="291.684" cy="266.3" r="2.473"/><circle cx="299.597" cy="270.504" r="2.473"/><circle cx="307.511" cy="274.832" r="2.473"/><circle cx="315.424" cy="279.159" r="2.473"/><circle cx="323.338" cy="283.363" r="2.473"/><circle cx="331.251" cy="287.691" r="2.473"/><circle cx="339.041" cy="291.895" r="2.473"/><circle cx="346.954" cy="296.223" r="2.473"/><circle cx="354.868" cy="300.55" r="2.473"/><circle cx="362.781" cy="304.754" r="2.473"/><circle cx="370.694" cy="309.082" r="2.473"/><circle cx="378.608" cy="313.41" r="2.473"/><circle cx="288.345" cy="272.606" r="2.473"/><circle cx="296.135" cy="276.81" r="2.473"/><circle cx="304.049" cy="281.138" r="2.473"/><circle cx="311.962" cy="285.465" r="2.473"/><circle cx="319.875" cy="289.669" r="2.473"/><circle cx="327.789" cy="293.997" r="2.473"/><circle cx="335.702" cy="298.325" r="2.473"/><circle cx="343.492" cy="302.529" r="2.473"/><circle cx="351.405" cy="306.856" r="2.473"/><circle cx="359.319" cy="311.184" r="2.473"/><circle cx="367.232" cy="315.388" r="2.473"/><circle cx="375.146" cy="319.716" r="2.473"/><circle cx="284.883" cy="278.912" r="2.473"/><circle cx="292.797" cy="283.24" r="2.473"/><circle cx="300.586" cy="287.444" r="2.473"/><circle cx="308.5" cy="291.771" r="2.473"/><circle cx="316.413" cy="296.099" r="2.473"/><circle cx="324.327" cy="300.303" r="2.473"/><circle cx="332.24" cy="304.631" r="2.473"/><circle cx="340.154" cy="308.958" r="2.473"/><circle cx="347.943" cy="313.162" r="2.473"/><circle cx="355.857" cy="317.49" r="2.473"/><circle cx="363.77" cy="321.818" r="2.473"/><circle cx="371.684" cy="326.022" r="2.473"/><circle cx="281.421" cy="285.218" r="2.473"/><circle cx="289.335" cy="289.546" r="2.473"/><circle cx="297.248" cy="293.873" r="2.473"/><circle cx="305.038" cy="298.077" r="2.473"/><circle cx="312.951" cy="302.405" r="2.473"/><circle cx="320.865" cy="306.733" r="2.473"/><circle cx="328.778" cy="310.937" r="2.473"/><circle cx="336.691" cy="315.264" r="2.473"/><circle cx="344.605" cy="319.592" r="2.473"/><circle cx="352.518" cy="323.796" r="2.473"/><circle cx="360.308" cy="328.124" r="2.473"/><circle cx="368.221" cy="332.328" r="2.473"/><circle cx="277.959" cy="291.648" r="2.473"/><circle cx="285.872" cy="295.852" r="2.473"/><circle cx="293.786" cy="300.179" r="2.473"/><circle cx="301.699" cy="304.507" r="2.473"/><circle cx="309.489" cy="308.711" r="2.473"/><circle cx="317.402" cy="313.039" r="2.473"/><circle cx="325.316" cy="317.366" r="2.473"/><circle cx="333.229" cy="321.57" r="2.473"/><circle cx="341.143" cy="325.898" r="2.473"/><circle cx="349.056" cy="330.102" r="2.473"/><circle cx="356.969" cy="334.43" r="2.473"/><circle cx="364.759" cy="338.757" r="2.473"/><circle cx="274.497" cy="297.954" r="2.473"/><circle cx="282.41" cy="302.281" r="2.473"/><circle cx="290.324" cy="306.485" r="2.473"/><circle cx="298.237" cy="310.813" r="2.473"/><circle cx="306.151" cy="315.017" r="2.473"/><circle cx="313.94" cy="319.345" r="2.473"/><circle cx="321.854" cy="323.672" r="2.473"/><circle cx="329.767" cy="327.876" r="2.473"/><circle cx="337.681" cy="332.204" r="2.473"/><circle cx="345.594" cy="336.532" r="2.473"/><circle cx="353.507" cy="340.736" r="2.473"/><circle cx="361.421" cy="345.063" r="2.473"/><circle cx="271.035" cy="304.26" r="2.473"/><circle cx="278.948" cy="308.587" r="2.473"/><circle cx="286.862" cy="312.791" r="2.473"/><circle cx="294.775" cy="317.119" r="2.473"/><circle cx="302.688" cy="321.447" r="2.473"/><circle cx="310.602" cy="325.651" r="2.473"/><circle cx="318.515" cy="329.978" r="2.473"/><circle cx="326.305" cy="334.306" r="2.473"/><circle cx="334.218" cy="338.51" r="2.473"/><circle cx="342.132" cy="342.838" r="2.473"/><circle cx="350.045" cy="347.165" r="2.473"/><circle cx="357.959" cy="351.369" r="2.473"/><circle cx="267.696" cy="310.566" r="2.473"/><circle cx="275.486" cy="314.893" r="2.473"/><circle cx="283.399" cy="319.221" r="2.473"/><circle cx="291.313" cy="323.425" r="2.473"/><circle cx="299.226" cy="327.753" r="2.473"/><circle cx="307.14" cy="332.08" r="2.473"/><circle cx="315.053" cy="336.284" r="2.473"/><circle cx="322.967" cy="340.612" r="2.473"/><circle cx="330.756" cy="344.94" r="2.473"/><circle cx="338.67" cy="349.144" r="2.473"/><circle cx="346.583" cy="353.471" r="2.473"/><circle cx="354.497" cy="357.799" r="2.473"/><circle cx="777.988" cy="217.707" r="2.473"/><circle cx="786.52" cy="214.739" r="2.473"/><circle cx="795.051" cy="211.772" r="2.473"/><circle cx="803.459" cy="208.804" r="2.473"/><circle cx="811.991" cy="205.837" r="2.473"/><circle cx="820.399" cy="202.869" r="2.473"/><circle cx="828.931" cy="199.901" r="2.473"/><circle cx="837.339" cy="196.934" r="2.473"/><circle cx="845.87" cy="193.966" r="2.473"/><circle cx="854.402" cy="190.999" r="2.473"/><circle cx="862.81" cy="188.031" r="2.473"/><circle cx="871.342" cy="185.064" r="2.473"/><circle cx="780.461" cy="224.507" r="2.473"/><circle cx="788.869" cy="221.54" r="2.473"/><circle cx="797.401" cy="218.572" r="2.473"/><circle cx="805.809" cy="215.605" r="2.473"/><circle cx="814.34" cy="212.637" r="2.473"/><circle cx="822.872" cy="209.67" r="2.473"/><circle cx="831.28" cy="206.702" r="2.473"/><circle cx="839.812" cy="203.735" r="2.473"/><circle cx="848.22" cy="200.767" r="2.473"/><circle cx="856.751" cy="197.8" r="2.473"/><circle cx="865.159" cy="194.832" r="2.473"/><circle cx="873.691" cy="191.864" r="2.473"/><circle cx="782.81" cy="231.308" r="2.473"/><circle cx="791.218" cy="228.34" r="2.473"/><circle cx="799.75" cy="225.373" r="2.473"/><circle cx="808.282" cy="222.405" r="2.473"/><circle cx="816.69" cy="219.438" r="2.473"/><circle cx="825.221" cy="216.47" r="2.473"/><circle cx="833.629" cy="213.503" r="2.473"/><circle cx="842.161" cy="210.535" r="2.473"/><circle cx="850.569" cy="207.568" r="2.473"/><circle cx="859.101" cy="204.6" r="2.473"/><circle cx="867.632" cy="201.633" r="2.473"/><circle cx="876.04" cy="198.665" r="2.473"/><circle cx="785.16" cy="238.108" r="2.473"/><circle cx="793.691" cy="235.141" r="2.473"/><circle cx="802.099" cy="232.173" r="2.473"/><circle cx="810.631" cy="229.206" r="2.473"/><circle cx="819.039" cy="226.238" r="2.473"/><circle cx="827.57" cy="223.271" r="2.473"/><circle cx="836.102" cy="220.303" r="2.473"/><circle cx="844.51" cy="217.336" r="2.473"/><circle cx="853.042" cy="214.368" r="2.473"/><circle cx="861.45" cy="211.401" r="2.473"/><circle cx="869.981" cy="208.433" r="2.473"/><circle cx="878.389" cy="205.466" r="2.473"/><circle cx="787.509" cy="244.909" r="2.473"/><circle cx="796.04" cy="241.942" r="2.473"/><circle cx="804.572" cy="238.974" r="2.473"/><circle cx="812.98" cy="236.006" r="2.473"/><circle cx="821.512" cy="233.039" r="2.473"/><circle cx="829.92" cy="230.071" r="2.473"/><circle cx="838.451" cy="227.104" r="2.473"/><circle cx="846.859" cy="224.136" r="2.473"/><circle cx="855.391" cy="221.169" r="2.473"/><circle cx="863.923" cy="218.201" r="2.473"/><circle cx="872.331" cy="215.234" r="2.473"/><circle cx="880.862" cy="212.266" r="2.473"/><circle cx="789.982" cy="251.71" r="2.473"/><circle cx="798.39" cy="248.742" r="2.473"/><circle cx="806.921" cy="245.775" r="2.473"/><circle cx="815.33" cy="242.807" r="2.473"/><circle cx="823.861" cy="239.84" r="2.473"/><circle cx="832.393" cy="236.872" r="2.473"/><circle cx="840.801" cy="233.904" r="2.473"/><circle cx="849.332" cy="230.937" r="2.473"/><circle cx="857.74" cy="227.969" r="2.473"/><circle cx="866.272" cy="225.002" r="2.473"/><circle cx="874.68" cy="222.034" r="2.473"/><circle cx="883.212" cy="219.067" r="2.473"/><circle cx="792.331" cy="258.51" r="2.473"/><circle cx="800.863" cy="255.543" r="2.473"/><circle cx="809.271" cy="252.575" r="2.473"/><circle cx="817.802" cy="249.608" r="2.473"/><circle cx="826.21" cy="246.64" r="2.473"/><circle cx="834.742" cy="243.673" r="2.473"/><circle cx="843.15" cy="240.705" r="2.473"/><circle cx="851.682" cy="237.738" r="2.473"/><circle cx="860.213" cy="234.77" r="2.473"/><circle cx="868.621" cy="231.802" r="2.473"/><circle cx="877.153" cy="228.835" r="2.473"/><circle cx="885.561" cy="225.867" r="2.473"/><circle cx="794.68" cy="265.311" r="2.473"/><circle cx="803.212" cy="262.343" r="2.473"/><circle cx="811.62" cy="259.376" r="2.473"/><circle cx="820.152" cy="256.408" r="2.473"/><circle cx="828.683" cy="253.441" r="2.473"/><circle cx="837.091" cy="250.473" r="2.473"/><circle cx="845.623" cy="247.506" r="2.473"/><circle cx="854.031" cy="244.538" r="2.473"/><circle cx="862.563" cy="241.571" r="2.473"/><circle cx="870.971" cy="238.603" r="2.473"/><circle cx="879.502" cy="235.636" r="2.473"/><circle cx="888.034" cy="232.668" r="2.473"/><circle cx="797.153" cy="272.111" r="2.473"/><circle cx="805.561" cy="269.144" r="2.473"/><circle cx="814.093" cy="266.176" r="2.473"/><circle cx="822.501" cy="263.209" r="2.473"/><circle cx="831.033" cy="260.241" r="2.473"/><circle cx="839.441" cy="257.274" r="2.473"/><circle cx="847.972" cy="254.306" r="2.473"/><circle cx="856.38" cy="251.339" r="2.473"/><circle cx="864.912" cy="248.371" r="2.473"/><circle cx="873.444" cy="245.404" r="2.473"/><circle cx="881.852" cy="242.436" r="2.473"/><circle cx="890.383" cy="239.469" r="2.473"/><circle cx="799.503" cy="278.912" r="2.473"/><circle cx="807.911" cy="275.944" r="2.473"/><circle cx="816.442" cy="272.977" r="2.473"/><circle cx="824.85" cy="270.009" r="2.473"/><circle cx="833.382" cy="267.042" r="2.473"/><circle cx="841.914" cy="264.074" r="2.473"/><circle cx="850.322" cy="261.107" r="2.473"/><circle cx="858.853" cy="258.139" r="2.473"/><circle cx="867.261" cy="255.172" r="2.473"/><circle cx="875.793" cy="252.204" r="2.473"/><circle cx="884.201" cy="249.237" r="2.473"/><circle cx="892.733" cy="246.269" r="2.473"/><circle cx="801.852" cy="285.836" r="2.473"/><circle cx="810.383" cy="282.869" r="2.473"/><circle cx="818.792" cy="279.901" r="2.473"/><circle cx="827.323" cy="276.934" r="2.473"/><circle cx="835.731" cy="273.966" r="2.473"/><circle cx="844.263" cy="270.999" r="2.473"/><circle cx="852.671" cy="268.031" r="2.473"/><circle cx="861.202" cy="265.064" r="2.473"/><circle cx="869.734" cy="262.096" r="2.473"/><circle cx="878.142" cy="259.128" r="2.473"/><circle cx="886.674" cy="256.161" r="2.473"/><circle cx="895.082" cy="253.193" r="2.473"/><circle cx="804.201" cy="292.637" r="2.473"/><circle cx="812.733" cy="289.669" r="2.473"/><circle cx="821.141" cy="286.702" r="2.473"/><circle cx="829.672" cy="283.734" r="2.473"/><circle cx="838.204" cy="280.767" r="2.473"/><circle cx="846.612" cy="277.799" r="2.473"/><circle cx="855.144" cy="274.832" r="2.473"/><circle cx="863.552" cy="271.864" r="2.473"/><circle cx="872.083" cy="268.897" r="2.473"/><circle cx="880.491" cy="265.929" r="2.473"/><circle cx="889.023" cy="262.962" r="2.473"/><circle cx="897.555" cy="259.994" r="2.473"/><circle cx="806.674" cy="299.437" r="2.473"/><circle cx="815.082" cy="296.47" r="2.473"/><circle cx="823.614" cy="293.502" r="2.473"/><circle cx="832.022" cy="290.535" r="2.473"/><circle cx="840.553" cy="287.567" r="2.473"/><circle cx="848.961" cy="284.6" r="2.473"/><circle cx="857.493" cy="281.632" r="2.473"/><circle cx="866.025" cy="278.665" r="2.473"/><circle cx="874.433" cy="275.697" r="2.473"/><circle cx="882.964" cy="272.73" r="2.473"/><circle cx="891.372" cy="269.762" r="2.473"/><circle cx="899.904" cy="266.795" r="2.473"/><circle cx="809.023" cy="306.238" r="2.473"/><circle cx="817.431" cy="303.271" r="2.473"/><circle cx="825.963" cy="300.303" r="2.473"/><circle cx="834.495" cy="297.335" r="2.473"/><circle cx="842.903" cy="294.368" r="2.473"/><circle cx="851.434" cy="291.4" r="2.473"/><circle cx="859.842" cy="288.433" r="2.473"/><circle cx="868.374" cy="285.465" r="2.473"/><circle cx="876.782" cy="282.498" r="2.473"/><circle cx="885.314" cy="279.53" r="2.473"/><circle cx="893.845" cy="276.563" r="2.473"/><circle cx="902.253" cy="273.595" r="2.473"/></g><g fill="none" stroke-width=".184" stroke="#fff" stroke-miterlimit="10"><path d="M523.522 298.077L812.6 12.452M684.882 202.87L973.97-82.756M66.522 796.252L355.6 510.627M227.882 701.043L516.97 415.418m-675.6.002l289.087-285.75"/></g><g opacity=".9"><path d="M557.153 568.99l263.12 148.5 260.03-153.693-2.968-302.07-263.12-148.5L554.063 266.92zm257.8-381.575l198.583 112.028 2.226 228L819.534 643.3l-198.58-112.025-2.35-227.882z" fill="url(#G)"/></g><g fill="none" stroke-width=".184" stroke="#fff" stroke-miterlimit="10"><path d="M2.72 320.2L291.807 34.585m381.946 577.68L962.84 326.64M835.237 517.056l289.087-285.625"/></g><path d="M449.828 402.683l-13.107-16.2 16.2-13.107a2.6 2.6 0 0 0-3.215-3.957l-16.2 13.107-13.107-16.2c-.414-.543-1.034-.89-1.713-.96s-1.357.143-1.873.6a2.6 2.6 0 0 0-.371 3.586l13.107 16.2-16.32 13.112a2.72 2.72 0 0 0-.371 3.586 2.6 2.6 0 0 0 3.586.371l16.322-13.1 13.107 16.2c.414.543 1.034.89 1.713.96s1.357-.143 1.873-.6a2.72 2.72 0 0 0 .37-3.588z" fill="url(#H)"/><path d="M883.088 611.523l-13.107-16.2 16.2-13.107a2.6 2.6 0 0 0-3.215-4.08l-16.2 13.107-13.107-16.2a2.6 2.6 0 0 0-4.786.445 2.6 2.6 0 0 0 .829 2.77l13.106 16.2-16.32 13.113a2.72 2.72 0 0 0-.371 3.586c.414.543 1.034.89 1.713.96s1.357-.143 1.873-.6l16.32-13.107 13.107 16.32a2.6 2.6 0 0 0 3.586.371 2.72 2.72 0 0 0 .37-3.59z" fill="url(#I)"/><path d="M167.048 316.253l-13.107-16.198 16.2-13.107a2.51 2.51 0 0 0-.583-4.34 2.51 2.51 0 0 0-2.508.383L150.726 296.1l-13.107-16.2c-.414-.543-1.034-.89-1.713-.96s-1.357.143-1.873.6a2.6 2.6 0 0 0-.371 3.586l13.104 16.2-16.2 13.107a2.6 2.6 0 0 0 3.215 3.957l16.2-13.107 13.107 16.2c.414.543 1.034.89 1.713.96s1.357-.143 1.873-.6a2.6 2.6 0 0 0 .374-3.588z" fill="url(#J)"/><path d="M327.54 154.893l-13.106-16.32 16.197-12.98a2.6 2.6 0 0 0-3.215-4.08l-16.194 13.103-13.1-16.198a2.6 2.6 0 0 0-4.786.445 2.6 2.6 0 0 0 .829 2.77l13.107 16.2-16.2 13.107a2.6 2.6 0 0 0 .446 4.788 2.6 2.6 0 0 0 2.771-.835l16.2-13.107 13.105 16.322a2.6 2.6 0 0 0 3.956-3.215z" fill="url(#K)"/><path d="M655.577 85.404l-13.107-16.2 16.2-13.107a2.6 2.6 0 0 0-3.216-3.953l-16.2 13.107-13.106-16.323a2.6 2.6 0 0 0-4.787.446 2.6 2.6 0 0 0 .832 2.77l13.106 16.32-16.32 12.98c-1.03.972-1.188 2.553-.37 3.71a2.72 2.72 0 0 0 3.586.371l16.32-13.107 13.107 16.2a2.6 2.6 0 0 0 3.586.371 2.72 2.72 0 0 0 .371-3.586z" fill="url(#L)"/><path d="M97.558 610.658l-13.11-16.198 16.326-13.107a2.6 2.6 0 0 0-3.215-3.957l-16.32 13.112-12.983-16.326a2.72 2.72 0 0 0-3.707-.374 2.72 2.72 0 0 0-.371 3.586l13.104 16.324-16.2 13.107a2.6 2.6 0 0 0-.371 3.586 2.72 2.72 0 0 0 3.586.371l16.2-13.107 13.107 16.2a2.6 2.6 0 0 0 3.586.371c.543-.414.89-1.034.96-1.713s-.143-1.357-.6-1.873z" fill="url(#M)"/><path d="M97.558 71.927L84.452 55.605l16.32-13.106a2.6 2.6 0 0 0 .371-3.586 2.72 2.72 0 0 0-3.586-.367l-16.32 13.1-12.983-16.2a2.72 2.72 0 0 0-3.71-.366 2.72 2.72 0 0 0-.37 3.586l13.107 16.2-16.2 13.104a2.6 2.6 0 0 0 .445 4.786 2.6 2.6 0 0 0 2.77-.829l16.2-13.107 13.105 16.326a2.72 2.72 0 0 0 3.586.371c.543-.414.89-1.034.96-1.713s-.143-1.357-.6-1.873z" fill="url(#N)"/><path d="M916.72 130.288l-13.107-16.2 16.2-13.107a2.6 2.6 0 0 0-.587-4.543 2.6 2.6 0 0 0-2.628.463L900.404 110l-13.107-16.2a2.6 2.6 0 0 0-4.786.445 2.6 2.6 0 0 0 .829 2.77l13.106 16.2-16.325 13.106a2.6 2.6 0 0 0-.371 3.586c.414.543 1.034.89 1.713.96s1.357-.143 1.873-.6l16.322-12.983 13.107 16.2a2.6 2.6 0 0 0 3.586.371 2.72 2.72 0 0 0 .369-3.588z" fill="url(#O)"/><g fill="none" stroke="#707070" stroke-width=".184"><circle cx="684.881" cy="406.144" r="90.262"/><circle cx="684.882" cy="406.145" r="55.023"/></g></g></g></svg>