<svg xmlns="http://www.w3.org/2000/svg" xmlns:xlink="http://www.w3.org/1999/xlink" width="729" height="192"><style><![CDATA[.B{fill:#ee7668}.C{stroke-width:.384}.D{fill:#c6564e}.E{fill:#4e5f97}.F{stroke-miterlimit:10}]]></style><defs><clipPath id="A"><rect width="729" height="192" rx="5" fill="#fff" x="1598" y="5232"/></clipPath><clipPath id="B"><path transform="translate(58.061 30.374)" fill="none" d="M0 0h769.636v513.09H0z"/></clipPath><linearGradient id="C" y1=".5" x2="1" y2=".5"><stop offset="0" stop-color="#3b8909"/><stop offset="1" stop-color="#78ff69"/></linearGradient><linearGradient id="D" y1=".5" x2="1" y2=".5"><stop offset="0" stop-color="#25541b"/><stop offset="1" stop-color="#31ff44"/></linearGradient><linearGradient id="E" y1=".5" x2="1" y2=".5"><stop offset="0" stop-color="#0dd354"/><stop offset="1" stop-color="#1fff39" stop-opacity="0"/></linearGradient><linearGradient id="F" y1=".5" x2="1" y2=".5"><stop offset="0" stop-color="#0b632f"/><stop offset="1" stop-color="#63e50e"/></linearGradient><linearGradient id="G" x1="0" xlink:href="#E"/></defs><g transform="translate(-1598 -5232)" clip-path="url(#A)"><g transform="translate(1519.803 5154.625)" clip-path="url(#B)"><path fill="url(#C)" d="M58.06 30.374h769.636v513.09H58.06z"/><path d="M450.472 30.374l-178.76 513.09H58.06l196.924-513.09z" fill="url(#D)"/><g opacity=".9"><path d="M348.265 116.677L132.357-10.878-86.015 112.367l-2.463 250.7 215.908 127.55 218.372-123.244zm-53.567 30.272l-1.847 189.125-164.8 92.972-162.963-96.153 1.848-189.228 164.8-92.972z" fill="url(#E)"/></g><path d="M769.205 30.374l-178.658 513.09h-213.65l196.82-513.09z" fill="url(#F)"/><g fill="none" stroke="#fff" class="C F"><path d="M469.457 265.678L709.378 28.63M603.373 186.662l239.92-237.048M90.18 679.126L330.1 442.078M224.097 600.1l239.92-237.048m-560.704.01l239.92-237.15"/></g><g opacity=".9"><path d="M497.374 490.515L715.74 613.76l215.806-127.554-2.463-250.7-218.37-123.24-215.91 127.557zm213.955-316.68l164.8 92.972 1.847 189.228-162.85 96.153L550.32 459.22l-1.947-189.13z" fill="url(#G)"/></g><g fill="none" class="C"><g stroke="#fff" class="F"><path d="M37.23 284.047L277.15 47m316.988 479.43l239.92-237.048m-105.9 158.033l239.92-237.048"/></g><g stroke="#707070"><circle cx="603.373" cy="355.366" r="74.911"/><circle cx="603.373" cy="355.366" r="45.665"/></g></g></g></g><path d="M90.313 119.942c-5.25-16.684-28.535-19.318-28.535-19.318l-1.537-14.9-5.48-2.08V82.6l-1.377.523-1.377-.523v1.045l-5.48 2.08-1.538 14.9s-23.3 2.634-28.542 19.318c-3.546 11.265 19.932 18.465 35.556 23.647v.893q.674-.214 1.377-.442.7.228 1.377.442v-.893c15.62-5.182 39.1-12.382 35.554-23.647z" class="B"/><path d="M90.313 119.94c-4.274-13.576-20.49-17.85-26.382-18.97a15.54 15.54 0 0 1-20.1-.177c-4.753.787-22.83 4.694-27.38 19.147-3.548 11.266 19.927 18.466 35.553 23.647v.893q.674-.214 1.377-.442.7.228 1.377.442v-.893c15.62-5.18 39.102-12.38 35.555-23.647z" fill="#9ab9bb"/><path d="M90.313 119.94c-3.15-10.008-12.787-14.957-20-17.318l-.268.326c-3.2 3.738-7.248 6.966-12.02 8.176-7.855 2.014-16.038-1.81-19.533-9.127-7.3 2.06-18.585 6.952-22.045 17.943-3.546 11.266 19.932 18.466 35.556 23.647v.893q.674-.214 1.377-.442.7.228 1.377.442v-.893c15.622-5.182 39.104-12.38 35.557-23.647z" fill="#0c4710"/><path d="M78.145 106.14a45.34 45.34 0 0 0 2.495 29.51c.17.384.73.05.563-.33a44.62 44.62 0 0 1-2.43-29.008c.04-.17-.063-.34-.23-.387s-.343.048-.397.214zm-49.113 28.902q.293.14.6.28a57.63 57.63 0 0 0-.311-29.685l-.6.324a56.95 56.95 0 0 1 .3 29.082z" fill="#f8c681"/><path d="M61.38 96.78l-1.14-11.06-5.48-2.08v-1.045l-1.377.523-1.377-.523v1.045l-5.48 2.08-1.076 10.427c5.214 1.273 10.63 1.488 15.93.633z" opacity=".28" style="mix-blend-mode:multiply" class="B"/><path d="M81.918 67.275c3.232-2.256 5.2-5.985 6.1-9.822 1.387-5.895 2.758-17.46-3.778-21.03a6.74 6.74 0 0 1-1.946-1.235c-1.313-1.483-.332-3.75.15-5.673.95-3.8-.713-8.884-4.157-10.944a13.98 13.98 0 0 0-8.136-1.733c-3.96.276-8.168 1.8-11.727.03C54.695 15.024 52.738 12 48.195 12c-4.212.027-8.265 1.608-11.382 4.44-.953 1.094-2.128 1.972-3.447 2.576-1.708.55-3.534-.12-5.3-.46a14.38 14.38 0 0 0-11.687 2.984c-4.715 3.893-7.83 13.637-3.338 18.78 1.64 1.877 4.3 3.063 4.917 5.48.472 1.857-.477 3.735-1.012 5.575-.954 3.022-.52 6.31 1.184 8.982a7.76 7.76 0 0 0 8.162 3.224" fill="#cfb691"/><path d="M29.172 59.73a5.07 5.07 0 0 0-5.517.324 7.26 7.26 0 0 0-2.783 4.976 13.07 13.07 0 0 0 .719 5.77 12.15 12.15 0 0 0 3.4 5.548 6.47 6.47 0 0 0 6.135 1.42M77.743 59.73a5.07 5.07 0 0 1 5.517.324c1.567 1.2 2.573 3.007 2.784 4.976a13.08 13.08 0 0 1-.72 5.77 12.14 12.14 0 0 1-3.4 5.548 6.47 6.47 0 0 1-6.135 1.42" fill="#dd665e"/><g class="D"><path d="M23.675 64.312c4.368 1.86 5.85 6.5 7.06 10.7.048.174.227.276.4.228s.276-.227.228-.4c-1.254-4.355-2.843-9.168-7.36-11.093-.382-.163-.714.4-.33.563zm59.002-.562c-4.517 1.925-6.105 6.738-7.36 11.093-.048.174.054.353.228.4s.353-.054.4-.228c1.2-4.206 2.692-8.842 7.06-10.7.386-.164.053-.726-.33-.563z"/><path d="M79.223 66.556c.8 1.1 1.13 2.503.878 3.854a4.99 4.99 0 0 1-2.204 3.282c-.347.233-.02.8.33.562a5.67 5.67 0 0 0 2.505-3.678 5.59 5.59 0 0 0-.945-4.35c-.235-.345-.8-.02-.563.33zm-52.646-.228c-1.2 2.917-.7 6.673 2.7 7.738.4.126.573-.5.173-.63-3.054-.96-3.284-4.382-2.235-6.936.16-.4-.47-.556-.628-.173z"/></g><path d="M76.835 36.983c-2.8-9.14-14.613-12.454-23.786-12.076-9.173-.378-20.986 2.936-23.786 12.076C27 44.835 26.305 53.056 27.22 61.176c.63 6.5 1.3 16.726 5.7 21.855 4.983 5.807 12.55 8.183 20.13 8.143 7.58.04 15.147-2.336 20.13-8.143 4.4-5.128 5.07-15.345 5.7-21.855a62.2 62.2 0 0 0-2.043-24.193z" class="B"/><path d="M53.46 63.797c-1.774-.7-4.752-.522-5.507 1.643-.715 2.052 1.4 4.33 3.272 4.863.174.048.353-.054.4-.228s-.054-.353-.228-.4c-1.57-.448-3.608-2.555-2.7-4.27.853-1.606 3.16-1.534 4.588-.98.392.152.56-.477.173-.628zm-6.005 8.578a4.71 4.71 0 0 0 4.35 2.38 4.72 4.72 0 0 0 4.074-2.827c.174-.38-.388-.7-.563-.33a4.06 4.06 0 0 1-3.5 2.51 4.1 4.1 0 0 1-3.8-2.065c-.094-.148-.288-.196-.44-.108s-.206.28-.123.436z" class="D"/><path d="M38.087 47.668c-2.385.534-5.575 1.963-6.776 4.287-.946 1.833.87 2.85 2.38 2.936 2.27.13 12.674-2.78 8.05-6.436-2.192-1.733-6.18-.478-8.13.994m31.525-1.78c2.385.534 5.575 1.963 6.776 4.287.947 1.833-.87 2.85-2.38 2.936-2.27.13-12.674-2.78-8.05-6.436 2.2-1.733 6.18-.478 8.13.994" fill="#994039"/><g fill="#aa4a43"><ellipse cx="40.64" cy="64.758" rx="1.868" ry="3.885"/><ellipse cx="62.672" cy="64.758" rx="1.868" ry="3.885"/></g><path d="M30.868 34.235c.662 4.358 3.286 8.172 7.12 10.348 3.82 2.12 8.174 3.076 12.53 2.75 2.376-.116 4.933-.425 6.78 1.365 1.728 1.677 2.8 2.884 5.444 3.23.324.01.64.1.92.263a1.88 1.88 0 0 1 .561 1.331c.363 2.52 1.134 4.964 2.282 7.236.9 1.913 2.218 3.59 3.878 4.892a7.29 7.29 0 0 0 5.945 1.366c.38-4.126 1.554-8.13 2.348-12.2s1.2-8.33.047-12.31c-1.574-5.45-5.936-9.757-10.922-12.46s-10.595-4-16.148-5.157c-2.794-.686-5.66-1.034-8.537-1.036" opacity=".15" style="mix-blend-mode:multiply" class="B"/><g fill="#cfb691"><path d="M73.783 33.684a8.76 8.76 0 0 0-5.946 8.078c-.018 3.306 1.863 6.346 2.21 9.634a26.33 26.33 0 0 1-.357 4.623c.006 2.232.442 4.44 1.285 6.508.65 1.8 1.692 3.834 3.492 4.726 2.605 1.292 4.2-.928 5.614-2.845 2.066-2.8 3.69-5.94 3.3-9.513-.36-3.314-1.767-6.477-2.33-9.766-.593-3.463-.427-11.5-5.03-12.5"/><path d="M30.998 24.373a11.13 11.13 0 0 0 1.272 11.269c2.5 3.17 6.288 5.055 10.324 5.134 3.04.088 6.167-.746 9.08.128 2.755.825 4.855 3.044 7.43 4.327a19.15 19.15 0 0 0 8.987 1.55c3.1-.066 6.52-.6 8.5-2.977 1.063-1.382 1.643-3.075 1.65-4.818.188-5.393-3.62-10.318-8.357-12.9s-10.27-3.236-15.657-3.54c-7.908-.444-16.015-.21-23.472 2.463"/></g><path d="M53.868 64.606c-1-.347-2.054-.517-3.113-.5a2.73 2.73 0 0 0-2.033 4.678c.745.83 1.64 1.5 2.64 2.006a.86.86 0 0 0 .647.166.8.8 0 0 0 .343-.258c1.617-1.844 2.104-4.422 1.27-6.73" opacity=".15" style="mix-blend-mode:multiply" class="B"/><g fill="#f3debf"><path d="M47.367 127.984l46.57-22.935 6.034 6.358-41.33 20.342z"/><path d="M55.15 130.583L13.027 107.44l-10.555 4.686 45.963 21.418z"/></g><path d="M98.75 110.314l-40.9 17.3-5.87-.037v-.023l-1.542.012-1.542-.012v.023l-5.495.037-39.985-17.3a2.49 2.49 0 0 0-3.4 2.37l1.28 59.736a2.49 2.49 0 0 0 1.635 2.294l39.684 15.123a14.51 14.51 0 0 0 7.822 2.015 14.51 14.51 0 0 0 7.822-2.015l40.987-15.123a2.49 2.49 0 0 0 1.639-2.288l1.28-59.736a2.49 2.49 0 0 0-3.404-2.376z" class="E"/><path d="M40.037 185.483l-35.894-12.57v-.134L2.27 114.496l38.424 16.287zm-35.512-12.85l35.127 12.305.65-53.9-37.625-15.942z" fill="#758ac6"/><path d="M57.657 127.61l-5.688-.036v-.023l-1.542.012-1.542-.012v.023l-5.494.037-.253-.11v62.64a16.43 16.43 0 0 0 14.521.032z" opacity=".17" style="mix-blend-mode:multiply" class="E"/><path d="M54.505 183.793a4.11 4.11 0 1 1-4.108-4.109 4.11 4.11 0 0 1 4.108 4.109zm-9.38-50.93h10.542v4.166H45.126z" fill="#ffd38e"/><path d="M43.136 160.275l14.52-5.82v-4.5l-14.52 5.82zm0 8.277l14.52-5.82v-4.5l-14.52 5.82zm18.16 16.944v-.283l-.363-55.9 38.405-16.07-.006.3-1.055 57.652-.122.048zm.028-55.925l.36 55.357 36.2-14 1.05-57.092z" fill="#758ac6"/><path d="M93 157.802c-10.34-.456-20.652 1.147-30.99 1.637-8.977.425-18.1-.01-26.7-2.6s-16.7-7.514-21.978-14.784c-6.3-8.674-7.966-19.636-7.06-30.5l-2.86-1.237a2.49 2.49 0 0 0-2.334.275 2.49 2.49 0 0 0-1.066 2.095l1.28 59.736a2.49 2.49 0 0 0 1.639 2.29l39.684 15.123a14.51 14.51 0 0 0 7.822 2.015 14.51 14.51 0 0 0 7.822-2.015l40.987-15.123a2.49 2.49 0 0 0 1.639-2.288l.294-13.738a63.16 63.16 0 0 0-8.178-.886z" opacity=".14" style="mix-blend-mode:color-burn" class="E"/><path d="M102.627 148.33c-.02-.1-.044-.16-.067-.14.56-.455.906-1.12.96-1.84s-.2-1.428-.675-1.96c.287-.617.4-1.3.326-1.978-.144-.632-.512-1.19-1.037-1.572.056-.398.056-.802 0-1.2a3.35 3.35 0 0 0-1.331-1.854c-.968-.99-2.254-1.605-3.63-1.74a1.18 1.18 0 0 0-.972.292c-.218.347-.23.785-.03 1.144.66 1.225 1.665 2.23 2.9 2.892a7.7 7.7 0 0 0-4.388.92c-.457.253-.937.64-.93 1.16.007.558.56.937 1.073 1.16a7.76 7.76 0 0 0 3.553.619 10.65 10.65 0 0 0-2.959.677c-.56.208-1.192.53-1.292 1.12a1.15 1.15 0 0 0 .35.966c.26.244.57.43.91.543.896.344 1.858.48 2.815.4a6.29 6.29 0 0 0-1.58.829 1.9 1.9 0 0 0-.865 1.158c-.276 1.817 2.506 1.686 3.61 1.742 1.064.055 2.368.057 3.078-.885a1.71 1.71 0 0 0 .317-1.139 11.53 11.53 0 0 0-.121-1.314z" class="B"/><path d="M98.757 140.165l.308.208a7.59 7.59 0 0 0-.974-.02 25.9 25.9 0 0 1 4.428.826 2.6 2.6 0 0 0-.384-.344v-.025c-1.1-.3-2.24-.505-3.378-.645zm4.16 4.32c-.026-.03-.045-.07-.073-.1l.05-.16a25.37 25.37 0 0 0-5.125.01h.6a9.78 9.78 0 0 0-2.228.43.13.13 0 0 0 .107.029 25.09 25.09 0 0 1 6.668-.209zm-4.822 3.498a6.31 6.31 0 0 0-.868.407 23.21 23.21 0 0 1 5.478-.349 2.56 2.56 0 0 0 .236-.24 23.59 23.59 0 0 0-4.846.182z" class="D"/><path d="M.903 148.33c.02-.1.044-.16.066-.14-.56-.455-.906-1.12-.96-1.84s.2-1.428.675-1.96c-.287-.617-.4-1.3-.326-1.978.144-.632.512-1.19 1.037-1.572a4.33 4.33 0 0 1 0-1.2 3.35 3.35 0 0 1 1.331-1.854c.968-.99 2.254-1.605 3.63-1.74a1.18 1.18 0 0 1 .972.292c.218.347.23.785.03 1.144-.66 1.225-1.665 2.23-2.9 2.892a7.7 7.7 0 0 1 4.388.92c.457.253.937.64.93 1.16-.007.558-.56.937-1.073 1.16a7.76 7.76 0 0 1-3.553.619 10.65 10.65 0 0 1 2.959.677c.56.208 1.192.53 1.292 1.12a1.15 1.15 0 0 1-.35.966c-.26.244-.57.43-.91.543-.896.344-1.858.48-2.815.4.563.2 1.095.48 1.58.83a1.9 1.9 0 0 1 .865 1.158c.276 1.817-2.506 1.686-3.61 1.742-1.064.055-2.368.057-3.078-.885a1.71 1.71 0 0 1-.317-1.139 11.56 11.56 0 0 1 .122-1.314z" class="B"/><path d="M4.772 140.165l-.308.208a7.59 7.59 0 0 1 .974-.02 25.91 25.91 0 0 0-4.428.826 2.6 2.6 0 0 1 .384-.344v-.025c1.1-.3 2.24-.505 3.378-.645zM.6 144.485c.026-.03.045-.07.073-.1l-.05-.16a25.37 25.37 0 0 1 5.125.01h-.6a9.78 9.78 0 0 1 2.228.43.13.13 0 0 1-.107.029 25.09 25.09 0 0 0-6.668-.209zm4.823 3.498a6.31 6.31 0 0 1 .868.407 23.21 23.21 0 0 0-5.478-.349 2.56 2.56 0 0 1-.236-.24 23.59 23.59 0 0 1 4.846.182z" class="D"/></svg>