<svg xmlns="http://www.w3.org/2000/svg" width="805" height="92"><defs><clipPath id="A"><path d="M5 0h795a5 5 0 0 1 5 5v87H0V5a5 5 0 0 1 5-5z" transform="translate(2041 8192)" fill="#fff"/></clipPath><clipPath id="B"><path transform="translate(27.821 14.554)" fill="none" d="M0 0h820.24v546.826H0z"/></clipPath><linearGradient id="C" y1=".5" x2="1" y2=".5"><stop offset="0" stop-color="#7f0ee2"/><stop offset="1" stop-color="#f7084d"/></linearGradient><linearGradient id="D" y1=".5" x2="1" y2=".5"><stop offset="0" stop-color="#6d05e5"/><stop offset="1" stop-color="#f7087a"/></linearGradient><linearGradient id="E" y1=".5" x2="1" y2=".5"><stop offset="0" stop-color="#4008ba"/><stop offset="1" stop-color="#1fff39" stop-opacity="0"/></linearGradient><linearGradient id="F" y1=".5" x2="1" y2=".5"><stop offset="0" stop-color="#930bf4"/><stop offset="1" stop-color="#c911bc"/></linearGradient><linearGradient id="G" y1=".5" x2="1" y2=".5"><stop offset="0" stop-color="#7800f7"/><stop offset="1" stop-color="#1fff39" stop-opacity="0"/></linearGradient></defs><g transform="translate(-2041 -8192)" clip-path="url(#A)"><g transform="translate(1998.44 8131.446)" clip-path="url(#B)"><path fill="url(#C)" d="M27.82 14.554h820.24V561.38H27.82z"/><path d="M446.033 14.554L255.52 561.38H27.82L237.693 14.554z" fill="url(#D)"/><g opacity=".9"><path d="M337.105 106.53L107-29.413l-232.73 131.35-2.625 267.18 230.1 135.94L334.48 373.7zm-57.09 32.263l-1.97 201.56-175.64 99.085-173.672-102.475 1.97-201.67 175.64-99.086z" fill="url(#E)"/></g><path d="M785.722 14.554L595.317 561.38H367.62L577.38 14.554z" fill="url(#F)"/><g fill="#fff"><circle cx="279.47" cy="203.537" r="2.187"/><circle cx="286.469" cy="207.365" r="2.187"/><circle cx="293.469" cy="211.083" r="2.187"/><circle cx="300.468" cy="214.911" r="2.187"/><circle cx="307.467" cy="218.739" r="2.187"/><circle cx="314.357" cy="222.457" r="2.187"/><circle cx="321.357" cy="226.285" r="2.187"/><circle cx="328.356" cy="230.113" r="2.187"/><circle cx="335.355" cy="233.831" r="2.187"/><circle cx="342.355" cy="237.659" r="2.187"/><circle cx="349.354" cy="241.487" r="2.187"/><circle cx="356.354" cy="245.205" r="2.187"/><circle cx="276.408" cy="209.115" r="2.187"/><circle cx="283.407" cy="212.943" r="2.187"/><circle cx="290.406" cy="216.77" r="2.187"/><circle cx="297.406" cy="220.489" r="2.187"/><circle cx="304.405" cy="224.317" r="2.187"/><circle cx="311.404" cy="228.144" r="2.187"/><circle cx="318.404" cy="231.863" r="2.187"/><circle cx="325.294" cy="235.691" r="2.187"/><circle cx="332.293" cy="239.409" r="2.187"/><circle cx="339.293" cy="243.237" r="2.187"/><circle cx="346.292" cy="247.065" r="2.187"/><circle cx="353.291" cy="250.783" r="2.187"/><circle cx="273.455" cy="214.802" r="2.187"/><circle cx="280.345" cy="218.52" r="2.187"/><circle cx="287.344" cy="222.348" r="2.187"/><circle cx="294.344" cy="226.066" r="2.187"/><circle cx="301.343" cy="229.894" r="2.187"/><circle cx="308.342" cy="233.722" r="2.187"/><circle cx="315.342" cy="237.44" r="2.187"/><circle cx="322.341" cy="241.268" r="2.187"/><circle cx="329.231" cy="245.096" r="2.187"/><circle cx="336.23" cy="248.814" r="2.187"/><circle cx="343.23" cy="252.642" r="2.187"/><circle cx="350.229" cy="256.47" r="2.187"/><circle cx="270.393" cy="220.379" r="2.187"/><circle cx="277.392" cy="224.098" r="2.187"/><circle cx="284.282" cy="227.926" r="2.187"/><circle cx="291.281" cy="231.753" r="2.187"/><circle cx="298.281" cy="235.472" r="2.187"/><circle cx="305.28" cy="239.3" r="2.187"/><circle cx="312.279" cy="243.127" r="2.187"/><circle cx="319.279" cy="246.846" r="2.187"/><circle cx="326.278" cy="250.674" r="2.187"/><circle cx="333.168" cy="254.501" r="2.187"/><circle cx="340.168" cy="258.22" r="2.187"/><circle cx="347.167" cy="262.048" r="2.187"/><circle cx="267.33" cy="225.957" r="2.187"/><circle cx="274.33" cy="229.785" r="2.187"/><circle cx="281.329" cy="233.503" r="2.187"/><circle cx="288.328" cy="237.331" r="2.187"/><circle cx="295.218" cy="241.159" r="2.187"/><circle cx="302.218" cy="244.877" r="2.187"/><circle cx="309.217" cy="248.705" r="2.187"/><circle cx="316.217" cy="252.533" r="2.187"/><circle cx="323.216" cy="256.251" r="2.187"/><circle cx="330.215" cy="260.079" r="2.187"/><circle cx="337.105" cy="263.907" r="2.187"/><circle cx="344.105" cy="267.625" r="2.187"/><circle cx="264.268" cy="231.535" r="2.187"/><circle cx="271.267" cy="235.362" r="2.187"/><circle cx="278.267" cy="239.19" r="2.187"/><circle cx="285.266" cy="242.909" r="2.187"/><circle cx="292.266" cy="246.736" r="2.187"/><circle cx="299.156" cy="250.564" r="2.187"/><circle cx="306.155" cy="254.283" r="2.187"/><circle cx="313.154" cy="258.11" r="2.187"/><circle cx="320.154" cy="261.938" r="2.187"/><circle cx="327.153" cy="265.657" r="2.187"/><circle cx="334.152" cy="269.484" r="2.187"/><circle cx="341.042" cy="273.203" r="2.187"/><circle cx="261.206" cy="237.222" r="2.187"/><circle cx="268.205" cy="240.94" r="2.187"/><circle cx="275.205" cy="244.768" r="2.187"/><circle cx="282.204" cy="248.596" r="2.187"/><circle cx="289.203" cy="252.314" r="2.187"/><circle cx="296.203" cy="256.142" r="2.187"/><circle cx="303.093" cy="259.86" r="2.187"/><circle cx="310.092" cy="263.688" r="2.187"/><circle cx="317.091" cy="267.516" r="2.187"/><circle cx="324.091" cy="271.234" r="2.187"/><circle cx="331.09" cy="275.062" r="2.187"/><circle cx="338.09" cy="278.89" r="2.187"/><circle cx="258.253" cy="242.799" r="2.187"/><circle cx="265.143" cy="246.518" r="2.187"/><circle cx="272.142" cy="250.346" r="2.187"/><circle cx="279.142" cy="254.173" r="2.187"/><circle cx="286.141" cy="257.892" r="2.187"/><circle cx="293.14" cy="261.72" r="2.187"/><circle cx="300.14" cy="265.547" r="2.187"/><circle cx="307.03" cy="269.266" r="2.187"/><circle cx="314.029" cy="273.093" r="2.187"/><circle cx="321.029" cy="276.921" r="2.187"/><circle cx="328.028" cy="280.64" r="2.187"/><circle cx="335.027" cy="284.467" r="2.187"/><circle cx="255.191" cy="248.377" r="2.187"/><circle cx="262.19" cy="252.205" r="2.187"/><circle cx="269.08" cy="255.923" r="2.187"/><circle cx="276.08" cy="259.751" r="2.187"/><circle cx="283.079" cy="263.579" r="2.187"/><circle cx="290.078" cy="267.297" r="2.187"/><circle cx="297.078" cy="271.125" r="2.187"/><circle cx="304.077" cy="274.953" r="2.187"/><circle cx="310.967" cy="278.671" r="2.187"/><circle cx="317.966" cy="282.499" r="2.187"/><circle cx="324.966" cy="286.327" r="2.187"/><circle cx="331.965" cy="290.045" r="2.187"/><circle cx="252.129" cy="253.955" r="2.187"/><circle cx="259.128" cy="257.782" r="2.187"/><circle cx="266.127" cy="261.61" r="2.187"/><circle cx="273.017" cy="265.329" r="2.187"/><circle cx="280.017" cy="269.156" r="2.187"/><circle cx="287.016" cy="272.984" r="2.187"/><circle cx="294.015" cy="276.703" r="2.187"/><circle cx="301.015" cy="280.53" r="2.187"/><circle cx="308.014" cy="284.358" r="2.187"/><circle cx="315.014" cy="288.077" r="2.187"/><circle cx="321.904" cy="291.904" r="2.187"/><circle cx="328.903" cy="295.623" r="2.187"/><circle cx="249.066" cy="259.642" r="2.187"/><circle cx="256.066" cy="263.36" r="2.187"/><circle cx="263.065" cy="267.188" r="2.187"/><circle cx="270.064" cy="271.016" r="2.187"/><circle cx="276.954" cy="274.734" r="2.187"/><circle cx="283.954" cy="278.562" r="2.187"/><circle cx="290.953" cy="282.39" r="2.187"/><circle cx="297.953" cy="286.108" r="2.187"/><circle cx="304.952" cy="289.936" r="2.187"/><circle cx="311.951" cy="293.654" r="2.187"/><circle cx="318.951" cy="297.482" r="2.187"/><circle cx="325.841" cy="301.31" r="2.187"/><circle cx="246.004" cy="265.219" r="2.187"/><circle cx="253.003" cy="269.047" r="2.187"/><circle cx="260.003" cy="272.765" r="2.187"/><circle cx="267.002" cy="276.593" r="2.187"/><circle cx="274.002" cy="280.312" r="2.187"/><circle cx="280.892" cy="284.139" r="2.187"/><circle cx="287.891" cy="287.967" r="2.187"/><circle cx="294.89" cy="291.686" r="2.187"/><circle cx="301.89" cy="295.513" r="2.187"/><circle cx="308.889" cy="299.341" r="2.187"/><circle cx="315.888" cy="303.06" r="2.187"/><circle cx="322.888" cy="306.887" r="2.187"/><circle cx="242.942" cy="270.797" r="2.187"/><circle cx="249.941" cy="274.625" r="2.187"/><circle cx="256.941" cy="278.343" r="2.187"/><circle cx="263.94" cy="282.171" r="2.187"/><circle cx="270.939" cy="285.999" r="2.187"/><circle cx="277.939" cy="289.717" r="2.187"/><circle cx="284.938" cy="293.545" r="2.187"/><circle cx="291.828" cy="297.373" r="2.187"/><circle cx="298.828" cy="301.091" r="2.187"/><circle cx="305.827" cy="304.919" r="2.187"/><circle cx="312.826" cy="308.747" r="2.187"/><circle cx="319.826" cy="312.465" r="2.187"/><circle cx="239.989" cy="276.374" r="2.187"/><circle cx="246.879" cy="280.202" r="2.187"/><circle cx="253.878" cy="284.03" r="2.187"/><circle cx="260.878" cy="287.748" r="2.187"/><circle cx="267.877" cy="291.576" r="2.187"/><circle cx="274.877" cy="295.404" r="2.187"/><circle cx="281.876" cy="299.122" r="2.187"/><circle cx="288.875" cy="302.95" r="2.187"/><circle cx="295.765" cy="306.778" r="2.187"/><circle cx="302.765" cy="310.496" r="2.187"/><circle cx="309.764" cy="314.324" r="2.187"/><circle cx="316.763" cy="318.152" r="2.187"/><circle cx="691.339" cy="194.241" r="2.187"/><circle cx="698.885" cy="191.616" r="2.187"/><circle cx="706.432" cy="188.992" r="2.187"/><circle cx="713.868" cy="186.367" r="2.187"/><circle cx="721.415" cy="183.742" r="2.187"/><circle cx="728.851" cy="181.117" r="2.187"/><circle cx="736.398" cy="178.493" r="2.187"/><circle cx="743.835" cy="175.868" r="2.187"/><circle cx="751.381" cy="173.243" r="2.187"/><circle cx="758.927" cy="170.618" r="2.187"/><circle cx="766.364" cy="167.993" r="2.187"/><circle cx="773.91" cy="165.369" r="2.187"/><circle cx="693.527" cy="200.256" r="2.187"/><circle cx="700.963" cy="197.631" r="2.187"/><circle cx="708.51" cy="195.007" r="2.187"/><circle cx="715.946" cy="192.382" r="2.187"/><circle cx="723.493" cy="189.757" r="2.187"/><circle cx="731.039" cy="187.132" r="2.187"/><circle cx="738.476" cy="184.508" r="2.187"/><circle cx="746.022" cy="181.883" r="2.187"/><circle cx="753.459" cy="179.258" r="2.187"/><circle cx="761.005" cy="176.633" r="2.187"/><circle cx="768.442" cy="174.009" r="2.187"/><circle cx="775.988" cy="171.384" r="2.187"/><circle cx="695.604" cy="206.271" r="2.187"/><circle cx="703.041" cy="203.647" r="2.187"/><circle cx="710.588" cy="201.022" r="2.187"/><circle cx="718.134" cy="198.397" r="2.187"/><circle cx="725.571" cy="195.772" r="2.187"/><circle cx="733.117" cy="193.147" r="2.187"/><circle cx="740.554" cy="190.523" r="2.187"/><circle cx="748.1" cy="187.898" r="2.187"/><circle cx="755.537" cy="185.273" r="2.187"/><circle cx="763.083" cy="182.648" r="2.187"/><circle cx="770.629" cy="180.024" r="2.187"/><circle cx="778.066" cy="177.399" r="2.187"/><circle cx="697.682" cy="212.286" r="2.187"/><circle cx="705.229" cy="209.662" r="2.187"/><circle cx="712.666" cy="207.037" r="2.187"/><circle cx="720.212" cy="204.412" r="2.187"/><circle cx="727.648" cy="201.787" r="2.187"/><circle cx="735.195" cy="199.163" r="2.187"/><circle cx="742.741" cy="196.538" r="2.187"/><circle cx="750.178" cy="193.913" r="2.187"/><circle cx="757.724" cy="191.288" r="2.187"/><circle cx="765.161" cy="188.664" r="2.187"/><circle cx="772.707" cy="186.039" r="2.187"/><circle cx="780.144" cy="183.414" r="2.187"/><circle cx="699.76" cy="218.301" r="2.187"/><circle cx="707.307" cy="215.677" r="2.187"/><circle cx="714.853" cy="213.052" r="2.187"/><circle cx="722.29" cy="210.427" r="2.187"/><circle cx="729.836" cy="207.802" r="2.187"/><circle cx="737.273" cy="205.178" r="2.187"/><circle cx="744.819" cy="202.553" r="2.187"/><circle cx="752.256" cy="199.928" r="2.187"/><circle cx="759.802" cy="197.303" r="2.187"/><circle cx="767.348" cy="194.679" r="2.187"/><circle cx="774.785" cy="192.054" r="2.187"/><circle cx="782.331" cy="189.429" r="2.187"/><circle cx="701.948" cy="224.317" r="2.187"/><circle cx="709.385" cy="221.692" r="2.187"/><circle cx="716.931" cy="219.067" r="2.187"/><circle cx="724.368" cy="216.442" r="2.187"/><circle cx="731.914" cy="213.818" r="2.187"/><circle cx="739.46" cy="211.193" r="2.187"/><circle cx="746.897" cy="208.568" r="2.187"/><circle cx="754.443" cy="205.943" r="2.187"/><circle cx="761.88" cy="203.318" r="2.187"/><circle cx="769.426" cy="200.694" r="2.187"/><circle cx="776.863" cy="198.069" r="2.187"/><circle cx="784.409" cy="195.444" r="2.187"/><circle cx="704.026" cy="230.332" r="2.187"/><circle cx="711.572" cy="227.707" r="2.187"/><circle cx="719.009" cy="225.082" r="2.187"/><circle cx="726.555" cy="222.457" r="2.187"/><circle cx="733.992" cy="219.833" r="2.187"/><circle cx="741.538" cy="217.208" r="2.187"/><circle cx="748.975" cy="214.583" r="2.187"/><circle cx="756.521" cy="211.958" r="2.187"/><circle cx="764.067" cy="209.334" r="2.187"/><circle cx="771.504" cy="206.709" r="2.187"/><circle cx="779.05" cy="204.084" r="2.187"/><circle cx="786.487" cy="201.459" r="2.187"/><circle cx="706.104" cy="236.347" r="2.187"/><circle cx="713.65" cy="233.722" r="2.187"/><circle cx="721.087" cy="231.097" r="2.187"/><circle cx="728.633" cy="228.472" r="2.187"/><circle cx="736.179" cy="225.848" r="2.187"/><circle cx="743.616" cy="223.223" r="2.187"/><circle cx="751.162" cy="220.598" r="2.187"/><circle cx="758.599" cy="217.973" r="2.187"/><circle cx="766.145" cy="215.349" r="2.187"/><circle cx="773.582" cy="212.724" r="2.187"/><circle cx="781.128" cy="210.099" r="2.187"/><circle cx="788.674" cy="207.474" r="2.187"/><circle cx="708.291" cy="242.362" r="2.187"/><circle cx="715.728" cy="239.737" r="2.187"/><circle cx="723.274" cy="237.112" r="2.187"/><circle cx="730.711" cy="234.488" r="2.187"/><circle cx="738.257" cy="231.863" r="2.187"/><circle cx="745.694" cy="229.238" r="2.187"/><circle cx="753.24" cy="226.613" r="2.187"/><circle cx="760.677" cy="223.988" r="2.187"/><circle cx="768.223" cy="221.364" r="2.187"/><circle cx="775.769" cy="218.739" r="2.187"/><circle cx="783.206" cy="216.114" r="2.187"/><circle cx="790.752" cy="213.489" r="2.187"/><circle cx="710.369" cy="248.377" r="2.187"/><circle cx="717.806" cy="245.752" r="2.187"/><circle cx="725.352" cy="243.127" r="2.187"/><circle cx="732.789" cy="240.503" r="2.187"/><circle cx="740.335" cy="237.878" r="2.187"/><circle cx="747.881" cy="235.253" r="2.187"/><circle cx="755.318" cy="232.628" r="2.187"/><circle cx="762.864" cy="230.004" r="2.187"/><circle cx="770.301" cy="227.379" r="2.187"/><circle cx="777.847" cy="224.754" r="2.187"/><circle cx="785.284" cy="222.129" r="2.187"/><circle cx="792.83" cy="219.505" r="2.187"/><circle cx="712.447" cy="254.501" r="2.187"/><circle cx="719.993" cy="251.877" r="2.187"/><circle cx="727.43" cy="249.252" r="2.187"/><circle cx="734.976" cy="246.627" r="2.187"/><circle cx="742.413" cy="244.002" r="2.187"/><circle cx="749.959" cy="241.378" r="2.187"/><circle cx="757.396" cy="238.753" r="2.187"/><circle cx="764.942" cy="236.128" r="2.187"/><circle cx="772.488" cy="233.503" r="2.187"/><circle cx="779.925" cy="230.878" r="2.187"/><circle cx="787.471" cy="228.254" r="2.187"/><circle cx="794.908" cy="225.629" r="2.187"/><circle cx="714.525" cy="260.516" r="2.187"/><circle cx="722.071" cy="257.892" r="2.187"/><circle cx="729.508" cy="255.267" r="2.187"/><circle cx="737.054" cy="252.642" r="2.187"/><circle cx="744.6" cy="250.017" r="2.187"/><circle cx="752.037" cy="247.393" r="2.187"/><circle cx="759.583" cy="244.768" r="2.187"/><circle cx="767.02" cy="242.143" r="2.187"/><circle cx="774.566" cy="239.518" r="2.187"/><circle cx="782.003" cy="236.894" r="2.187"/><circle cx="789.549" cy="234.269" r="2.187"/><circle cx="797.095" cy="231.644" r="2.187"/><circle cx="716.712" cy="266.532" r="2.187"/><circle cx="724.149" cy="263.907" r="2.187"/><circle cx="731.695" cy="261.282" r="2.187"/><circle cx="739.132" cy="258.657" r="2.187"/><circle cx="746.678" cy="256.032" r="2.187"/><circle cx="754.115" cy="253.408" r="2.187"/><circle cx="761.661" cy="250.783" r="2.187"/><circle cx="769.207" cy="248.158" r="2.187"/><circle cx="776.644" cy="245.533" r="2.187"/><circle cx="784.19" cy="242.909" r="2.187"/><circle cx="791.627" cy="240.284" r="2.187"/><circle cx="799.173" cy="237.659" r="2.187"/><circle cx="718.79" cy="272.547" r="2.187"/><circle cx="726.227" cy="269.922" r="2.187"/><circle cx="733.773" cy="267.297" r="2.187"/><circle cx="741.319" cy="264.672" r="2.187"/><circle cx="748.756" cy="262.048" r="2.187"/><circle cx="756.302" cy="259.423" r="2.187"/><circle cx="763.739" cy="256.798" r="2.187"/><circle cx="771.285" cy="254.173" r="2.187"/><circle cx="778.722" cy="251.548" r="2.187"/><circle cx="786.268" cy="248.924" r="2.187"/><circle cx="793.814" cy="246.299" r="2.187"/><circle cx="801.251" cy="243.674" r="2.187"/></g><g fill="none" stroke="#fff" stroke-miterlimit="10" stroke-width=".184"><path d="M466.266 265.33L721.962 12.695M608.988 181.118L864.684-71.516M62.052 705.962l255.696-252.634M204.774 621.75L460.47 369.116m-597.572 0l255.696-252.743"/></g><g opacity=".9"><path d="M496.014 504.945l232.73 131.35 230-135.94-2.625-267.18-232.734-131.348L493.28 237.77zm228.026-337.5l175.64 99.085 1.97 201.67-173.563 102.478-175.64-99.085-2.077-201.56z" fill="url(#G)"/></g><g fill="none" stroke="#fff" stroke-miterlimit="10" stroke-width=".184"><path d="M5.62 284.906L261.316 32.272m337.83 510.954L854.84 290.592M741.976 459.015L997.672 206.38"/></g></g></g></svg>